<svg xmlns="http://www.w3.org/2000/svg" viewBox="0 0 788.95 378" width="788.95" height="378" style="--bg:#ffffff;--fg:#1f2328;--line:#9ca3af;--accent:#6b7280;--muted:#59636e;background:var(--bg)">
<style>
  @import url('https://fonts.googleapis.com/css2?family=Inter:wght@400;500;600;700&amp;display=swap');
  text { font-family: 'Inter', system-ui, sans-serif; }
  svg {
    /* Derived from --bg and --fg (overridable via --line, --accent, etc.) */
    --_text:          var(--fg);
    --_text-sec:      var(--muted, color-mix(in srgb, var(--fg) 60%, var(--bg)));
    --_text-muted:    var(--muted, color-mix(in srgb, var(--fg) 40%, var(--bg)));
    --_text-faint:    color-mix(in srgb, var(--fg) 25%, var(--bg));
    --_line:          var(--line, color-mix(in srgb, var(--fg) 30%, var(--bg)));
    --_arrow:         var(--accent, color-mix(in srgb, var(--fg) 50%, var(--bg)));
    --_node-fill:     var(--surface, color-mix(in srgb, var(--fg) 3%, var(--bg)));
    --_node-stroke:   var(--border, color-mix(in srgb, var(--fg) 20%, var(--bg)));
    --_group-fill:    var(--bg);
    --_group-hdr:     color-mix(in srgb, var(--fg) 5%, var(--bg));
    --_inner-stroke:  color-mix(in srgb, var(--fg) 12%, var(--bg));
    --_key-badge:     color-mix(in srgb, var(--fg) 10%, var(--bg));
  }
</style>
<defs>
  <marker id="arrowhead" markerWidth="8" markerHeight="4.8" refX="8" refY="2.4" orient="auto">
    <polygon points="0 0, 8 2.4, 0 4.8" fill="var(--_arrow)" />
  </marker>
  <marker id="arrowhead-start" markerWidth="8" markerHeight="4.8" refX="0" refY="2.4" orient="auto-start-reverse">
    <polygon points="8 0, 0 2.4, 8 4.8" fill="var(--_arrow)" />
  </marker>
</defs>
<polyline points="234.8,76 234.8,151 317.70000000000005,151" fill="none" stroke="var(--_line)" stroke-width="0.75" marker-end="url(#arrowhead)" />
<polyline points="394.475,76 394.475,133" fill="none" stroke="var(--_line)" stroke-width="0.75" marker-end="url(#arrowhead)" />
<polyline points="551.425,76 551.425,151 471.25,151" fill="none" stroke="var(--_line)" stroke-width="0.75" marker-end="url(#arrowhead)" />
<polyline points="394.475,169 394.475,209" fill="none" stroke="var(--_line)" stroke-width="0.75" stroke-dasharray="4 4" />
<polyline points="394.475,245 394.475,273.5 327.15,273.5 327.15,302" fill="none" stroke="var(--_line)" stroke-width="0.75" marker-end="url(#arrowhead)" />
<polyline points="394.475,245 394.475,273.5 461.8,273.5 461.8,302" fill="none" stroke="var(--_line)" stroke-width="0.75" marker-end="url(#arrowhead)" />
<rect x="178.18" y="91" width="113.24000000000001" height="27" rx="4" ry="4" fill="var(--bg)" stroke="var(--_inner-stroke)" stroke-width="0.5" />
<text x="234.8" y="104.5" text-anchor="middle" dy="0.35em" font-size="11" font-weight="400" fill="var(--_text-muted)">Theoretical Price</text>
<rect x="357.875" y="91" width="73.2" height="27" rx="4" ry="4" fill="var(--bg)" stroke="var(--_inner-stroke)" stroke-width="0.5" />
<text x="394.475" y="104.5" text-anchor="middle" dy="0.35em" font-size="11" font-weight="400" fill="var(--_text-muted)">USDC Yield</text>
<rect x="520.545" y="91" width="61.760000000000005" height="27" rx="4" ry="4" fill="var(--bg)" stroke="var(--_inner-stroke)" stroke-width="0.5" />
<text x="551.425" y="104.5" text-anchor="middle" dy="0.35em" font-size="11" font-weight="400" fill="var(--_text-muted)">Spot EMA</text>
<rect x="270.53" y="260" width="113.24000000000001" height="27" rx="4" ry="4" fill="var(--bg)" stroke="var(--_inner-stroke)" stroke-width="0.5" />
<text x="327.15" y="273.5" text-anchor="middle" dy="0.35em" font-size="11" font-weight="400" fill="var(--_text-muted)">Buy spot + donate</text>
<rect x="405.18" y="260" width="113.24000000000001" height="27" rx="4" ry="4" fill="var(--bg)" stroke="var(--_inner-stroke)" stroke-width="0.5" />
<text x="461.8" y="273.5" text-anchor="middle" dy="0.35em" font-size="11" font-weight="400" fill="var(--_text-muted)">Buy spot + donate</text>
<rect x="175.9" y="40" width="117.80000000000001" height="36" rx="0" ry="0" fill="#f1f5f9" stroke="#475569" stroke-width="2px" />
<rect x="317.70000000000005" y="133" width="153.55" height="36" rx="0" ry="0" fill="#f1f5f9" stroke="#475569" stroke-width="2px" />
<rect x="317.70000000000005" y="40" width="153.55" height="36" rx="0" ry="0" fill="#f1f5f9" stroke="#475569" stroke-width="2px" />
<polygon points="504.24999999999994,40 598.5999999999999,40 607.5999999999999,58 598.5999999999999,76 504.24999999999994,76 495.24999999999994,58" fill="#fef9c3" stroke="#ca8a04" stroke-width="1.5px" />
<polygon points="52,209 748.95,209 748.95,245 52,245 40,227" fill="#fafafa" stroke="#d4d4d4" stroke-width="0.75px" />
<rect x="271.825" y="302" width="110.65" height="36" rx="6" ry="6" fill="#dcfce7" stroke="#16a34a" stroke-width="1.5px" />
<rect x="406.475" y="302" width="110.65" height="36" rx="6" ry="6" fill="#dcfce7" stroke="#16a34a" stroke-width="1.5px" />
<text x="234.8" y="58" text-anchor="middle" dy="0.35em" font-size="13" font-weight="500" fill="#1e293b">BasketOracle</text>
<text x="394.475" y="151" text-anchor="middle" dy="0.35em" font-size="13" font-weight="500" fill="#1e293b">RewardDistributor</text>
<text x="394.475" y="58" text-anchor="middle" dy="0.35em" font-size="13" font-weight="500" fill="#1e293b">SyntheticSplitter</text>
<text x="551.425" y="58" text-anchor="middle" dy="0.35em" font-size="13" font-weight="500" fill="#713f12">Curve AMM</text>
<text x="394.475" y="227" text-anchor="middle" dy="0.35em" font-size="13" font-weight="500" fill="#737373">Rebalancer · larger share to undervalued token · higher yield → more stakers → price corrects</text>
<text x="327.15" y="320" text-anchor="middle" dy="0.35em" font-size="13" font-weight="500" fill="#166534">splDXY-BEAR</text>
<text x="461.8" y="320" text-anchor="middle" dy="0.35em" font-size="13" font-weight="500" fill="#166534">splDXY-BULL</text>
</svg>