<svg xmlns="http://www.w3.org/2000/svg" viewBox="0 0 824.9000000000001 480" width="824.9000000000001" height="480" style="--bg:#ffffff;--fg:#1f2328;--line:#9ca3af;--accent:#6b7280;--muted:#59636e;background:var(--bg)">
<style>
  @import url('https://fonts.googleapis.com/css2?family=Inter:wght@400;500;600;700&amp;display=swap');
  text { font-family: 'Inter', system-ui, sans-serif; }
  svg {
    /* Derived from --bg and --fg (overridable via --line, --accent, etc.) */
    --_text:          var(--fg);
    --_text-sec:      var(--muted, color-mix(in srgb, var(--fg) 60%, var(--bg)));
    --_text-muted:    var(--muted, color-mix(in srgb, var(--fg) 40%, var(--bg)));
    --_text-faint:    color-mix(in srgb, var(--fg) 25%, var(--bg));
    --_line:          var(--line, color-mix(in srgb, var(--fg) 30%, var(--bg)));
    --_arrow:         var(--accent, color-mix(in srgb, var(--fg) 50%, var(--bg)));
    --_node-fill:     var(--surface, color-mix(in srgb, var(--fg) 3%, var(--bg)));
    --_node-stroke:   var(--border, color-mix(in srgb, var(--fg) 20%, var(--bg)));
    --_group-fill:    var(--bg);
    --_group-hdr:     color-mix(in srgb, var(--fg) 5%, var(--bg));
    --_inner-stroke:  color-mix(in srgb, var(--fg) 12%, var(--bg));
    --_key-badge:     color-mix(in srgb, var(--fg) 10%, var(--bg));
  }
</style>
<defs>
  <marker id="seq-arrow" markerWidth="8" markerHeight="4.8" refX="8" refY="2.4" orient="auto-start-reverse">
    <polygon points="0 0, 8 2.4, 0 4.8" fill="var(--_arrow)" />
  </marker>
  <marker id="seq-arrow-open" markerWidth="8" markerHeight="4.8" refX="8" refY="2.4" orient="auto-start-reverse">
    <polyline points="0 0, 8 2.4, 0 4.8" fill="none" stroke="var(--_arrow)" stroke-width="1" />
  </marker>
</defs>
<line x1="70" y1="70" x2="70" y2="450" stroke="var(--_line)" stroke-width="0.75" stroke-dasharray="6 4" />
<line x1="210" y1="70" x2="210" y2="450" stroke="var(--_line)" stroke-width="0.75" stroke-dasharray="6 4" />
<line x1="359.625" y1="70" x2="359.625" y2="450" stroke="var(--_line)" stroke-width="0.75" stroke-dasharray="6 4" />
<line x1="542.45" y1="70" x2="542.45" y2="450" stroke="var(--_line)" stroke-width="0.75" stroke-dasharray="6 4" />
<line x1="725.2750000000001" y1="70" x2="725.2750000000001" y2="450" stroke="var(--_line)" stroke-width="0.75" stroke-dasharray="6 4" />
<line x1="210" y1="90" x2="359.625" y2="90" stroke="var(--_line)" stroke-width="0.75" marker-end="url(#seq-arrow)" />
<text x="284.8125" y="84" text-anchor="middle" font-size="11" font-weight="400" fill="var(--_text-muted)">INVAR shares (burned)</text>
<line x1="542.45" y1="130" x2="359.625" y2="130" stroke="var(--_line)" stroke-width="0.75" stroke-dasharray="6 4" marker-end="url(#seq-arrow)" />
<text x="451.0375" y="124" text-anchor="middle" font-size="11" font-weight="400" fill="var(--_text-muted)">Pro-rata USDC</text>
<line x1="359.625" y1="170" x2="725.2750000000001" y2="170" stroke="var(--_line)" stroke-width="0.75" marker-end="url(#seq-arrow)" />
<text x="542.45" y="164" text-anchor="middle" font-size="11" font-weight="400" fill="var(--_text-muted)">Burn pro-rata LP (single-sided)</text>
<line x1="725.2750000000001" y1="210" x2="359.625" y2="210" stroke="var(--_line)" stroke-width="0.75" stroke-dasharray="6 4" marker-end="url(#seq-arrow)" />
<text x="542.45" y="204" text-anchor="middle" font-size="11" font-weight="400" fill="var(--_text-muted)">USDC from LP</text>
<line x1="359.625" y1="250" x2="210" y2="250" stroke="var(--_line)" stroke-width="0.75" marker-end="url(#seq-arrow)" />
<text x="284.8125" y="244" text-anchor="middle" font-size="11" font-weight="400" fill="var(--_text-muted)">Total USDC</text>
<line x1="70" y1="290" x2="359.625" y2="290" stroke="var(--_line)" stroke-width="0.75" marker-end="url(#seq-arrow)" />
<text x="214.8125" y="284" text-anchor="middle" font-size="11" font-weight="400" fill="var(--_text-muted)">replenishBuffer</text>
<line x1="359.625" y1="330" x2="542.45" y2="330" stroke="var(--_line)" stroke-width="0.75" marker-end="url(#seq-arrow)" />
<text x="451.0375" y="324" text-anchor="middle" font-size="11" font-weight="400" fill="var(--_text-muted)">Buffer &lt; 2%? Restore target</text>
<line x1="359.625" y1="370" x2="725.2750000000001" y2="370" stroke="var(--_line)" stroke-width="0.75" marker-end="url(#seq-arrow)" />
<text x="542.45" y="364" text-anchor="middle" font-size="11" font-weight="400" fill="var(--_text-muted)">Burn LP (single-sided)</text>
<line x1="725.2750000000001" y1="410" x2="542.45" y2="410" stroke="var(--_line)" stroke-width="0.75" stroke-dasharray="6 4" marker-end="url(#seq-arrow)" />
<text x="633.8625000000001" y="404" text-anchor="middle" font-size="11" font-weight="400" fill="var(--_text-muted)">USDC replenishment</text>
<g transform="translate(52,32) scale(1.5)">
  <path d="M21 12C21 16.9706 16.9706 21 12 21C7.02944 21 3 16.9706 3 12C3 7.02944 7.02944 3 12 3C16.9706 3 21 7.02944 21 12Z" fill="none" stroke="var(--_line)" stroke-width="0.6666666666666666" />
  <path d="M15 10C15 11.6569 13.6569 13 12 13C10.3431 13 9 11.6569 9 10C9 8.34315 10.3431 7 12 7C13.6569 7 15 8.34315 15 10Z" fill="none" stroke="var(--_line)" stroke-width="0.6666666666666666" />
  <path d="M5.62842 18.3563C7.08963 17.0398 9.39997 16 12 16C14.6 16 16.9104 17.0398 18.3716 18.3563" fill="none" stroke="var(--_line)" stroke-width="0.6666666666666666" />
</g>
<text x="70" y="84" text-anchor="middle" font-size="13" font-weight="500" fill="var(--_text)">Keeper</text>
<g transform="translate(192,32) scale(1.5)">
  <path d="M21 12C21 16.9706 16.9706 21 12 21C7.02944 21 3 16.9706 3 12C3 7.02944 7.02944 3 12 3C16.9706 3 21 7.02944 21 12Z" fill="none" stroke="var(--_line)" stroke-width="0.6666666666666666" />
  <path d="M15 10C15 11.6569 13.6569 13 12 13C10.3431 13 9 11.6569 9 10C9 8.34315 10.3431 7 12 7C13.6569 7 15 8.34315 15 10Z" fill="none" stroke="var(--_line)" stroke-width="0.6666666666666666" />
  <path d="M5.62842 18.3563C7.08963 17.0398 9.39997 16 12 16C14.6 16 16.9104 17.0398 18.3716 18.3563" fill="none" stroke="var(--_line)" stroke-width="0.6666666666666666" />
</g>
<text x="210" y="84" text-anchor="middle" font-size="13" font-weight="500" fill="var(--_text)">User</text>
<rect x="290" y="30" width="139.25" height="40" rx="4" ry="4" fill="var(--_node-fill)" stroke="var(--_node-stroke)" stroke-width="1" />
<text x="359.625" y="50" text-anchor="middle" dy="0.35em" font-size="13" font-weight="500" fill="var(--_text)">InvarCoin Vault</text>
<rect x="469.25000000000006" y="30" width="146.4" height="40" rx="4" ry="4" fill="var(--_node-fill)" stroke="var(--_node-stroke)" stroke-width="1" />
<text x="542.45" y="50" text-anchor="middle" dy="0.35em" font-size="13" font-weight="500" fill="var(--_text)">USDC Buffer (2%)</text>
<rect x="655.6500000000001" y="30" width="139.25" height="40" rx="4" ry="4" fill="var(--_node-fill)" stroke="var(--_node-stroke)" stroke-width="1" />
<text x="725.2750000000001" y="50" text-anchor="middle" dy="0.35em" font-size="13" font-weight="500" fill="var(--_text)">Curve USDC/BEAR</text>
</svg>