<svg xmlns="http://www.w3.org/2000/svg" viewBox="0 0 951.7425000000001 471" width="951.7425000000001" height="471" style="--bg:#ffffff;--fg:#1f2328;--line:#9ca3af;--accent:#6b7280;--muted:#59636e;background:var(--bg)">
<style>
  @import url('https://fonts.googleapis.com/css2?family=Inter:wght@400;500;600;700&amp;display=swap');
  text { font-family: 'Inter', system-ui, sans-serif; }
  svg {
    /* Derived from --bg and --fg (overridable via --line, --accent, etc.) */
    --_text:          var(--fg);
    --_text-sec:      var(--muted, color-mix(in srgb, var(--fg) 60%, var(--bg)));
    --_text-muted:    var(--muted, color-mix(in srgb, var(--fg) 40%, var(--bg)));
    --_text-faint:    color-mix(in srgb, var(--fg) 25%, var(--bg));
    --_line:          var(--line, color-mix(in srgb, var(--fg) 30%, var(--bg)));
    --_arrow:         var(--accent, color-mix(in srgb, var(--fg) 50%, var(--bg)));
    --_node-fill:     var(--surface, color-mix(in srgb, var(--fg) 3%, var(--bg)));
    --_node-stroke:   var(--border, color-mix(in srgb, var(--fg) 20%, var(--bg)));
    --_group-fill:    var(--bg);
    --_group-hdr:     color-mix(in srgb, var(--fg) 5%, var(--bg));
    --_inner-stroke:  color-mix(in srgb, var(--fg) 12%, var(--bg));
    --_key-badge:     color-mix(in srgb, var(--fg) 10%, var(--bg));
  }
</style>
<defs>
  <marker id="arrowhead" markerWidth="8" markerHeight="4.8" refX="8" refY="2.4" orient="auto">
    <polygon points="0 0, 8 2.4, 0 4.8" fill="var(--_arrow)" />
  </marker>
  <marker id="arrowhead-start" markerWidth="8" markerHeight="4.8" refX="0" refY="2.4" orient="auto-start-reverse">
    <polygon points="8 0, 0 2.4, 8 4.8" fill="var(--_arrow)" />
  </marker>
</defs>
<polyline points="442.03,76 442.03,133" fill="none" stroke="var(--_line)" stroke-width="0.75" marker-end="url(#arrowhead)" />
<polyline points="442.03,169 442.03,197.5 145.375,197.5 145.375,226" fill="none" stroke="var(--_line)" stroke-width="0.75" marker-end="url(#arrowhead)" />
<polyline points="145.375,262 145.375,319" fill="none" stroke="var(--_line)" stroke-width="0.75" marker-end="url(#arrowhead)" />
<polyline points="442.03,169 442.03,226" fill="none" stroke="var(--_line)" stroke-width="0.75" marker-end="url(#arrowhead)" />
<polyline points="442.03,226 442.03,226 645.9820833333333,226 645.9820833333333,244 667.8425,244 667.8425,262 624.1216666666667,262 624.1216666666667,244 536.68,244" fill="none" stroke="var(--_line)" stroke-width="0.75" marker-end="url(#arrowhead)" />
<polyline points="442.03,262 442.03,290.5 326.4425,290.5 326.4425,319" fill="none" stroke="var(--_line)" stroke-width="0.75" marker-end="url(#arrowhead)" />
<polyline points="326.4425,355 326.4425,395" fill="none" stroke="var(--_line)" stroke-width="0.75" marker-end="url(#arrowhead)" />
<polyline points="442.03,169 442.03,197.5 809.9425,197.5 809.9425,226" fill="none" stroke="var(--_line)" stroke-width="0.75" marker-end="url(#arrowhead)" />
<polyline points="809.9425,262 809.9425,319" fill="none" stroke="var(--_line)" stroke-width="0.75" marker-end="url(#arrowhead)" />
<polyline points="442.03,262 442.03,290.5 557.6175000000001,290.5 557.6175000000001,319" fill="none" stroke="var(--_line)" stroke-width="0.75" marker-end="url(#arrowhead)" />
<polyline points="557.6175000000001,355 557.6175000000001,395" fill="none" stroke="var(--_line)" stroke-width="0.75" marker-end="url(#arrowhead)" />
<rect x="368.25" y="91" width="147.56" height="27" rx="4" ry="4" fill="var(--bg)" stroke="var(--_inner-stroke)" stroke-width="0.5" />
<text x="442.03" y="104.5" text-anchor="middle" dy="0.35em" font-size="11" font-weight="400" fill="var(--_text-muted)">OrderRouter commit open</text>
<rect x="57.295" y="184" width="176.16" height="27" rx="4" ry="4" fill="var(--bg)" stroke="var(--_inner-stroke)" stroke-width="0.5" />
<text x="145.375" y="197.5" text-anchor="middle" dy="0.35em" font-size="11" font-weight="400" fill="var(--_text-muted)">full execution or settlement</text>
<rect x="353.95" y="184" width="176.16" height="27" rx="4" ry="4" fill="var(--bg)" stroke="var(--_inner-stroke)" stroke-width="0.5" />
<text x="442.03" y="197.5" text-anchor="middle" dy="0.35em" font-size="11" font-weight="400" fill="var(--_text-muted)">partial terminal consumption</text>
<rect x="588.3425" y="230.5" width="159" height="27" rx="4" ry="4" fill="var(--bg)" stroke="var(--_inner-stroke)" stroke-width="0.5" />
<text x="667.8425" y="244" text-anchor="middle" dy="0.35em" font-size="11" font-weight="400" fill="var(--_text-muted)">more terminal consumption</text>
<rect x="246.9425" y="277" width="159" height="27" rx="4" ry="4" fill="var(--bg)" stroke="var(--_inner-stroke)" stroke-width="0.5" />
<text x="326.4425" y="290.5" text-anchor="middle" dy="0.35em" font-size="11" font-weight="400" fill="var(--_text-muted)">remaining amount consumed</text>
<rect x="739.0225" y="184" width="141.84" height="27" rx="4" ry="4" fill="var(--bg)" stroke="var(--_inner-stroke)" stroke-width="0.5" />
<text x="809.9425" y="197.5" text-anchor="middle" dy="0.35em" font-size="11" font-weight="400" fill="var(--_text-muted)">expiry or valid refund</text>
<rect x="480.9775000000001" y="277" width="153.28" height="27" rx="4" ry="4" fill="var(--bg)" stroke="var(--_inner-stroke)" stroke-width="0.5" />
<text x="557.6175000000001" y="290.5" text-anchor="middle" dy="0.35em" font-size="11" font-weight="400" fill="var(--_text-muted)">release unused remainder</text>
<rect x="375.97999999999996" y="40" width="132.10000000000002" height="36" rx="18" ry="18" fill="#dbeafe" stroke="#2563eb" stroke-width="2px" />
<rect x="358.10499999999996" y="133" width="167.85000000000002" height="36" rx="18" ry="18" fill="#e0f2fe" stroke="#0284c7" stroke-width="1.5px" />
<rect x="100.775" y="226" width="89.2" height="36" rx="18" ry="18" fill="#dcfce7" stroke="#16a34a" stroke-width="2px" />
<rect x="39.999999999999986" y="319" width="210.75000000000003" height="36" rx="18" ry="18" fill="#fafafa" stroke="#d4d4d4" stroke-width="0.75px" />
<rect x="347.38" y="226" width="189.3" height="36" rx="18" ry="18" fill="#e0f2fe" stroke="#0284c7" stroke-width="1.5px" />
<rect x="281.8425" y="319" width="89.2" height="36" rx="18" ry="18" fill="#dcfce7" stroke="#16a34a" stroke-width="2px" />
<rect x="221.0675" y="395" width="210.75000000000003" height="36" rx="18" ry="18" fill="#fafafa" stroke="#d4d4d4" stroke-width="0.75px" />
<rect x="765.3425" y="226" width="89.2" height="36" rx="18" ry="18" fill="#fef3c7" stroke="#d97706" stroke-width="1.5px" />
<rect x="708.1424999999999" y="319" width="203.60000000000002" height="36" rx="18" ry="18" fill="#fafafa" stroke="#d4d4d4" stroke-width="0.75px" />
<rect x="513.0175" y="319" width="89.2" height="36" rx="18" ry="18" fill="#fef3c7" stroke="#d97706" stroke-width="1.5px" />
<rect x="455.81750000000005" y="395" width="203.60000000000002" height="36" rx="18" ry="18" fill="#fafafa" stroke="#d4d4d4" stroke-width="0.75px" />
<text x="442.03" y="58" text-anchor="middle" dy="0.35em" font-size="13" font-weight="500" fill="#1e40af">No Reservation</text>
<text x="442.03" y="151" text-anchor="middle" dy="0.35em" font-size="13" font-weight="500" fill="#0c4a6e">Active: Full Amount</text>
<text x="145.375" y="244" text-anchor="middle" dy="0.35em" font-size="13" font-weight="500" fill="#166534">Consumed</text>
<text x="145.375" y="337" text-anchor="middle" dy="0.35em" font-size="13" font-weight="500" fill="#737373">Closed and Not Refundable</text>
<text x="442.03" y="244" text-anchor="middle" dy="0.35em" font-size="13" font-weight="500" fill="#0c4a6e">Active: Partial Amount</text>
<text x="326.4425" y="337" text-anchor="middle" dy="0.35em" font-size="13" font-weight="500" fill="#166534">Consumed</text>
<text x="326.4425" y="413" text-anchor="middle" dy="0.35em" font-size="13" font-weight="500" fill="#737373">Closed and Not Refundable</text>
<text x="809.9425" y="244" text-anchor="middle" dy="0.35em" font-size="13" font-weight="500" fill="#92400e">Released</text>
<text x="809.9424999999999" y="337" text-anchor="middle" dy="0.35em" font-size="13" font-weight="500" fill="#737373">Free Settlement Restored</text>
<text x="557.6175000000001" y="337" text-anchor="middle" dy="0.35em" font-size="13" font-weight="500" fill="#92400e">Released</text>
<text x="557.6175000000001" y="413" text-anchor="middle" dy="0.35em" font-size="13" font-weight="500" fill="#737373">Free Settlement Restored</text>
</svg>