<svg xmlns="http://www.w3.org/2000/svg" viewBox="0 0 1377.025 581" width="1377.025" height="581" style="--bg:#ffffff;--fg:#1f2328;--line:#9ca3af;--accent:#6b7280;--muted:#59636e;background:var(--bg)">
<style>
  @import url('https://fonts.googleapis.com/css2?family=Inter:wght@400;500;600;700&amp;display=swap');
  text { font-family: 'Inter', system-ui, sans-serif; }
  svg {
    /* Derived from --bg and --fg (overridable via --line, --accent, etc.) */
    --_text:          var(--fg);
    --_text-sec:      var(--muted, color-mix(in srgb, var(--fg) 60%, var(--bg)));
    --_text-muted:    var(--muted, color-mix(in srgb, var(--fg) 40%, var(--bg)));
    --_text-faint:    color-mix(in srgb, var(--fg) 25%, var(--bg));
    --_line:          var(--line, color-mix(in srgb, var(--fg) 30%, var(--bg)));
    --_arrow:         var(--accent, color-mix(in srgb, var(--fg) 50%, var(--bg)));
    --_node-fill:     var(--surface, color-mix(in srgb, var(--fg) 3%, var(--bg)));
    --_node-stroke:   var(--border, color-mix(in srgb, var(--fg) 20%, var(--bg)));
    --_group-fill:    var(--bg);
    --_group-hdr:     color-mix(in srgb, var(--fg) 5%, var(--bg));
    --_inner-stroke:  color-mix(in srgb, var(--fg) 12%, var(--bg));
    --_key-badge:     color-mix(in srgb, var(--fg) 10%, var(--bg));
  }
</style>
<defs>
  <marker id="arrowhead" markerWidth="8" markerHeight="4.8" refX="8" refY="2.4" orient="auto">
    <polygon points="0 0, 8 2.4, 0 4.8" fill="var(--_arrow)" />
  </marker>
  <marker id="arrowhead-start" markerWidth="8" markerHeight="4.8" refX="0" refY="2.4" orient="auto-start-reverse">
    <polygon points="8 0, 0 2.4, 8 4.8" fill="var(--_arrow)" />
  </marker>
</defs>
<polyline points="811.0875000000001,76 811.0875000000001,133" fill="none" stroke="var(--_line)" stroke-width="0.75" marker-end="url(#arrowhead)" />
<polyline points="811.0875000000001,169 811.0875000000001,197.5 1079.075,197.5 1079.075,226" fill="none" stroke="var(--_line)" stroke-width="0.75" marker-end="url(#arrowhead)" />
<polyline points="1079.075,262 1079.075,290.5 841.5,290.5 841.5,337 670.8124999999999,337" fill="none" stroke="var(--_line)" stroke-width="0.75" marker-end="url(#arrowhead)" />
<polyline points="622.6374999999999,319 622.6374999999999,290.5 286.25,290.5 286.25,151 727.1625000000001,151" fill="none" stroke="var(--_line)" stroke-width="0.75" marker-end="url(#arrowhead)" />
<polyline points="622.6374999999999,355 622.6374999999999,383.5 418.8249999999998,383.5 418.8249999999998,412" fill="none" stroke="var(--_line)" stroke-width="0.75" marker-end="url(#arrowhead)" />
<polyline points="418.8249999999998,448 418.8249999999998,476.5 102.475,476.5 102.475,505" fill="none" stroke="var(--_line)" stroke-width="0.75" marker-end="url(#arrowhead)" />
<polyline points="418.8249999999998,448 418.8249999999998,476.5 280.025,476.5 280.025,505" fill="none" stroke="var(--_line)" stroke-width="0.75" marker-end="url(#arrowhead)" />
<polyline points="418.8249999999998,448 418.8249999999998,476.5 457.57499999999993,476.5 457.57499999999993,505" fill="none" stroke="var(--_line)" stroke-width="0.75" marker-end="url(#arrowhead)" />
<polyline points="418.8249999999998,448 418.8249999999998,476.5 653,476.5 653,505" fill="none" stroke="var(--_line)" stroke-width="0.75" marker-end="url(#arrowhead)" />
<polyline points="811.0875000000001,169 811.0875000000001,197.5 706.05,197.5 706.05,226" fill="none" stroke="var(--_line)" stroke-width="0.75" stroke-dasharray="4 4" />
<polyline points="1079.075,262 1079.075,319" fill="none" stroke="var(--_line)" stroke-width="0.75" stroke-dasharray="4 4" />
<polyline points="622.6374999999999,355 622.6374999999999,383.5 748.9499999999998,383.5 748.9499999999998,412" fill="none" stroke="var(--_line)" stroke-width="0.75" stroke-dasharray="4 4" />
<polyline points="418.8249999999998,448 418.8249999999998,476.5 1040.3249999999998,476.5 1040.3249999999998,505" fill="none" stroke="var(--_line)" stroke-width="0.75" stroke-dasharray="4 4" />
<rect x="714.4275000000001" y="91" width="193.32" height="27" rx="4" ry="4" fill="var(--bg)" stroke="var(--_inner-stroke)" stroke-width="0.5" />
<text x="811.0875000000001" y="104.5" text-anchor="middle" dy="0.35em" font-size="11" font-weight="400" fill="var(--_text-muted)">Deposit or withdraw trader cash</text>
<rect x="930.9350000000001" y="184" width="296.28000000000003" height="27" rx="4" ry="4" fill="var(--bg)" stroke="var(--_inner-stroke)" stroke-width="0.5" />
<text x="1079.075" y="197.5" text-anchor="middle" dy="0.35em" font-size="11" font-weight="400" fill="var(--_text-muted)">Reserve committed margin + seize execution bounty</text>
<rect x="770.58" y="277" width="141.84" height="27" rx="4" ry="4" fill="var(--bg)" stroke="var(--_inner-stroke)" stroke-width="0.5" />
<text x="841.5" y="290.5" text-anchor="middle" dy="0.35em" font-size="11" font-weight="400" fill="var(--_text-muted)">Validated order intent</text>
<rect x="178.14999999999998" y="230.5" width="216.20000000000002" height="27" rx="4" ry="4" fill="var(--bg)" stroke="var(--_inner-stroke)" stroke-width="0.5" />
<text x="286.25" y="244" text-anchor="middle" dy="0.35em" font-size="11" font-weight="400" fill="var(--_text-muted)">Settle, seize, classify liabilities</text>
<rect x="296.42499999999984" y="370" width="244.8" height="27" rx="4" ry="4" fill="var(--bg)" stroke="var(--_inner-stroke)" stroke-width="0.5" />
<text x="418.8249999999998" y="383.5" text-anchor="middle" dy="0.35em" font-size="11" font-weight="400" fill="var(--_text-muted)">Account protocol, revenue, recap inflows</text>
<rect x="42.99499999999999" y="463" width="118.96000000000001" height="27" rx="4" ry="4" fill="var(--bg)" stroke="var(--_inner-stroke)" stroke-width="0.5" />
<text x="102.475" y="476.5" text-anchor="middle" dy="0.35em" font-size="11" font-weight="400" fill="var(--_text-muted)">Mint / burn shares</text>
<rect x="191.945" y="463" width="176.16" height="27" rx="4" ry="4" fill="var(--bg)" stroke="var(--_inner-stroke)" stroke-width="0.5" />
<text x="280.025" y="476.5" text-anchor="middle" dy="0.35em" font-size="11" font-weight="400" fill="var(--_text-muted)">Record unpaid trader payouts</text>
<rect x="389.51499999999993" y="463" width="136.12" height="27" rx="4" ry="4" fill="var(--bg)" stroke="var(--_inner-stroke)" stroke-width="0.5" />
<text x="457.57499999999993" y="476.5" text-anchor="middle" dy="0.35em" font-size="11" font-weight="400" fill="var(--_text-muted)">Segregate non-LP fees</text>
<rect x="559.2" y="463" width="187.6" height="27" rx="4" ry="4" fill="var(--bg)" stroke="var(--_inner-stroke)" stroke-width="0.5" />
<text x="653" y="476.5" text-anchor="middle" dy="0.35em" font-size="11" font-weight="400" fill="var(--_text-muted)">Hold exceptional ownership gap</text>
<rect x="723.5875000000001" y="40" width="175" height="36" rx="18" ry="18" fill="#dbeafe" stroke="#2563eb" stroke-width="2px" />
<rect x="727.1625000000001" y="133" width="167.85000000000002" height="36" rx="0" ry="0" fill="#f1f5f9" stroke="#475569" stroke-width="2px" />
<rect x="1023.75" y="226" width="110.65" height="36" rx="0" ry="0" fill="#f1f5f9" stroke="#475569" stroke-width="2px" />
<rect x="574.4625" y="319" width="96.35000000000001" height="36" rx="0" ry="0" fill="#f1f5f9" stroke="#475569" stroke-width="2px" />
<rect x="370.6499999999998" y="412" width="96.35000000000001" height="36" rx="0" ry="0" fill="#f1f5f9" stroke="#475569" stroke-width="2px" />
<rect x="39.99999999999999" y="505" width="124.95" height="36" rx="0" ry="0" fill="#f1f5f9" stroke="#475569" stroke-width="2px" />
<rect x="188.95" y="505" width="182.15" height="36" rx="0" ry="0" fill="#fef9c3" stroke="#ca8a04" stroke-width="1.5px" />
<rect x="395.0999999999999" y="505" width="124.95" height="36" rx="6" ry="6" fill="#dcfce7" stroke="#16a34a" stroke-width="1.5px" />
<rect x="544.05" y="505" width="217.9" height="36" rx="6" ry="6" fill="#dcfce7" stroke="#16a34a" stroke-width="1.5px" />
<polygon points="424.3499999999999,226 999.75,226 999.75,262 424.3499999999999,262 412.3499999999999,244" fill="#fafafa" stroke="#d4d4d4" stroke-width="0.75px" />
<polygon points="833.125,319 1337.025,319 1337.025,355 833.125,355 821.125,337" fill="#fafafa" stroke="#d4d4d4" stroke-width="0.75px" />
<polygon points="502.9999999999998,412 1006.8999999999999,412 1006.8999999999999,448 502.9999999999998,448 490.9999999999998,430" fill="#fafafa" stroke="#d4d4d4" stroke-width="0.75px" />
<polygon points="797.9499999999998,505 1294.6999999999998,505 1294.6999999999998,541 797.9499999999998,541 785.9499999999998,523" fill="#fafafa" stroke="#d4d4d4" stroke-width="0.75px" />
<text x="811.0875000000001" y="58" text-anchor="middle" dy="0.35em" font-size="13" font-weight="500" fill="#1e40af">Trader / LP / Keeper</text>
<text x="811.0875000000001" y="151" text-anchor="middle" dy="0.35em" font-size="13" font-weight="500" fill="#1e293b">MarginClearinghouse</text>
<text x="1079.075" y="244" text-anchor="middle" dy="0.35em" font-size="13" font-weight="500" fill="#1e293b">OrderRouter</text>
<text x="622.6374999999999" y="337" text-anchor="middle" dy="0.35em" font-size="13" font-weight="500" fill="#1e293b">CfdEngine</text>
<text x="418.8249999999998" y="430" text-anchor="middle" dy="0.35em" font-size="13" font-weight="500" fill="#1e293b">HousePool</text>
<text x="102.475" y="523" text-anchor="middle" dy="0.35em" font-size="13" font-weight="500" fill="#1e293b">TrancheVaults</text>
<text x="280.025" y="523" text-anchor="middle" dy="0.35em" font-size="13" font-weight="500" fill="#713f12">Trader Claim Balances</text>
<text x="457.57499999999993" y="523" text-anchor="middle" dy="0.35em" font-size="13" font-weight="500" fill="#166534">Protocol Fees</text>
<text x="653" y="523" text-anchor="middle" dy="0.35em" font-size="13" font-weight="500" fill="#166534">Unassigned / Excess Assets</text>
<text x="706.05" y="244" text-anchor="middle" dy="0.35em" font-size="13" font-weight="500" fill="#737373">Trader domain: free settlement, live position margin, committed order margin</text>
<text x="1079.075" y="337" text-anchor="middle" dy="0.35em" font-size="13" font-weight="500" fill="#737373">Queue domain: clearinghouse-reserved execution-bounty reservations</text>
<text x="748.9499999999998" y="430" text-anchor="middle" dy="0.35em" font-size="13" font-weight="500" fill="#737373">Ledger domain: close, liquidation, solvency, withdrawal accounting</text>
<text x="1040.3249999999998" y="523" text-anchor="middle" dy="0.35em" font-size="13" font-weight="500" fill="#737373">Pool domain: accounted assets, tranche waterfall, fee segregation</text>
</svg>