<svg xmlns="http://www.w3.org/2000/svg" viewBox="0 0 658.38 818.5" width="658.38" height="818.5" style="--bg:#ffffff;--fg:#1f2328;--line:#9ca3af;--accent:#6b7280;--muted:#59636e;background:var(--bg)">
<style>
  @import url('https://fonts.googleapis.com/css2?family=Inter:wght@400;500;600;700&amp;display=swap');
  text { font-family: 'Inter', system-ui, sans-serif; }
  svg {
    /* Derived from --bg and --fg (overridable via --line, --accent, etc.) */
    --_text:          var(--fg);
    --_text-sec:      var(--muted, color-mix(in srgb, var(--fg) 60%, var(--bg)));
    --_text-muted:    var(--muted, color-mix(in srgb, var(--fg) 40%, var(--bg)));
    --_text-faint:    color-mix(in srgb, var(--fg) 25%, var(--bg));
    --_line:          var(--line, color-mix(in srgb, var(--fg) 30%, var(--bg)));
    --_arrow:         var(--accent, color-mix(in srgb, var(--fg) 50%, var(--bg)));
    --_node-fill:     var(--surface, color-mix(in srgb, var(--fg) 3%, var(--bg)));
    --_node-stroke:   var(--border, color-mix(in srgb, var(--fg) 20%, var(--bg)));
    --_group-fill:    var(--bg);
    --_group-hdr:     color-mix(in srgb, var(--fg) 5%, var(--bg));
    --_inner-stroke:  color-mix(in srgb, var(--fg) 12%, var(--bg));
    --_key-badge:     color-mix(in srgb, var(--fg) 10%, var(--bg));
  }
</style>
<defs>
  <marker id="arrowhead" markerWidth="8" markerHeight="4.8" refX="8" refY="2.4" orient="auto">
    <polygon points="0 0, 8 2.4, 0 4.8" fill="var(--_arrow)" />
  </marker>
  <marker id="arrowhead-start" markerWidth="8" markerHeight="4.8" refX="0" refY="2.4" orient="auto-start-reverse">
    <polygon points="8 0, 0 2.4, 8 4.8" fill="var(--_arrow)" />
  </marker>
</defs>
<polyline points="224.91250000000002,76 224.91250000000002,133" fill="none" stroke="var(--_line)" stroke-width="0.75" marker-end="url(#arrowhead)" />
<polyline points="224.91250000000002,169 224.91250000000002,197.5 109.62500000000006,197.5 109.62500000000006,666.5" fill="none" stroke="var(--_line)" stroke-width="0.75" marker-end="url(#arrowhead)" />
<polyline points="224.91250000000002,169 224.91250000000002,197.5 340.20000000000005,197.5 340.20000000000005,226.00000000000003" fill="none" stroke="var(--_line)" stroke-width="0.75" marker-end="url(#arrowhead)" />
<polyline points="296.6050609019529,331.3550609019529 296.6050609019529,403.45 194.82500000000005,403.45 194.82500000000005,502.725" fill="none" stroke="var(--_line)" stroke-width="0.75" marker-end="url(#arrowhead)" />
<polyline points="340.20000000000005,374.95000000000005 340.20000000000005,502.725" fill="none" stroke="var(--_line)" stroke-width="0.75" marker-end="url(#arrowhead)" />
<polyline points="387.1107511905832,328.03924880941685 387.1107511905832,403.45 515.45,403.45 515.45,431.95" fill="none" stroke="var(--_line)" stroke-width="0.75" marker-end="url(#arrowhead)" />
<polyline points="467.55891174160615,561.6089117416061 467.55891174160615,638 378.07500000000005,638 378.07500000000005,666.5" fill="none" stroke="var(--_line)" stroke-width="0.75" marker-end="url(#arrowhead)" />
<polyline points="544.9380313772388,580.0119686227613 544.9380313772388,638 573.78,638 573.78,666.5" fill="none" stroke="var(--_line)" stroke-width="0.75" marker-end="url(#arrowhead)" />
<polyline points="109.62500000000006,702.5 109.62500000000006,760.5 254.82500000000005,760.5" fill="none" stroke="var(--_line)" stroke-width="0.75" marker-end="url(#arrowhead)" />
<polyline points="378.07500000000005,702.5 378.07500000000005,742.5" fill="none" stroke="var(--_line)" stroke-width="0.75" marker-end="url(#arrowhead)" />
<polyline points="573.78,702.5 573.78,760.5 501.32500000000005,760.5" fill="none" stroke="var(--_line)" stroke-width="0.75" marker-end="url(#arrowhead)" />
<rect x="185.45250000000001" y="91" width="78.92" height="27" rx="4" ry="4" fill="var(--bg)" stroke="var(--_inner-stroke)" stroke-width="0.5" />
<text x="224.91250000000002" y="104.5" text-anchor="middle" dy="0.35em" font-size="11" font-weight="400" fill="var(--_text-muted)">commitOrder</text>
<rect x="81.60500000000006" y="389.95" width="56.04" height="27" rx="4" ry="4" fill="var(--bg)" stroke="var(--_inner-stroke)" stroke-width="0.5" />
<text x="109.62500000000006" y="403.45" text-anchor="middle" dy="0.35em" font-size="11" font-weight="400" fill="var(--_text-muted)">expires</text>
<rect x="257.84000000000003" y="184" width="164.72" height="27" rx="4" ry="4" fill="var(--bg)" stroke="var(--_inner-stroke)" stroke-width="0.5" />
<text x="340.20000000000005" y="197.5" text-anchor="middle" dy="0.35em" font-size="11" font-weight="400" fill="var(--_text-muted)">FIFO head + keeper execute</text>
<rect x="149.64500000000004" y="389.95" width="90.36" height="27" rx="4" ry="4" fill="var(--bg)" stroke="var(--_inner-stroke)" stroke-width="0.5" />
<text x="194.82500000000005" y="403.45" text-anchor="middle" dy="0.35em" font-size="11" font-weight="400" fill="var(--_text-muted)">frozen market</text>
<rect x="260.70000000000005" y="389.95" width="159" height="27" rx="4" ry="4" fill="var(--bg)" stroke="var(--_inner-stroke)" stroke-width="0.5" />
<text x="340.20000000000005" y="403.45" text-anchor="middle" dy="0.35em" font-size="11" font-weight="400" fill="var(--_text-muted)">MEV or stale keeper input</text>
<rect x="475.99000000000007" y="389.95" width="78.92" height="27" rx="4" ry="4" fill="var(--bg)" stroke="var(--_inner-stroke)" stroke-width="0.5" />
<text x="515.45" y="403.45" text-anchor="middle" dy="0.35em" font-size="11" font-weight="400" fill="var(--_text-muted)">valid price</text>
<rect x="301.43500000000006" y="624.5" width="153.28" height="27" rx="4" ry="4" fill="var(--bg)" stroke="var(--_inner-stroke)" stroke-width="0.5" />
<text x="378.07500000000005" y="638" text-anchor="middle" dy="0.35em" font-size="11" font-weight="400" fill="var(--_text-muted)">invalid or engine reject</text>
<rect x="545.76" y="624.5" width="56.04" height="27" rx="4" ry="4" fill="var(--bg)" stroke="var(--_inner-stroke)" stroke-width="0.5" />
<text x="573.78" y="638" text-anchor="middle" dy="0.35em" font-size="11" font-weight="400" fill="var(--_text-muted)">success</text>
<rect x="187.46250000000003" y="40" width="74.9" height="36" rx="18" ry="18" fill="#dbeafe" stroke="#2563eb" stroke-width="2px" />
<rect x="183.88750000000002" y="133" width="82.05000000000001" height="36" rx="18" ry="18" fill="#e0f2fe" stroke="#0284c7" stroke-width="1.5px" />
<rect x="40.00000000000006" y="666.5" width="139.25" height="36" rx="18" ry="18" fill="#fef3c7" stroke="#d97706" stroke-width="1.5px" />
<polygon points="340.20000000000005,226.00000000000003 414.67500000000007,300.475 340.20000000000005,374.95000000000005 265.725,300.475" fill="#f1f5f9" stroke="#475569" stroke-width="2px" />
<rect x="135.92500000000004" y="502.725" width="117.80000000000001" height="36" rx="18" ry="18" fill="#fee2e2" stroke="#dc2626" stroke-width="2px" />
<rect x="277.725" y="502.725" width="124.95" height="36" rx="18" ry="18" fill="#fee2e2" stroke="#dc2626" stroke-width="2px" />
<polygon points="515.45,431.95000000000005 604.225,520.725 515.45,609.5 426.67500000000007,520.725" fill="#f1f5f9" stroke="#475569" stroke-width="2px" />
<rect x="340.62500000000006" y="666.5" width="74.9" height="36" rx="18" ry="18" fill="#fef3c7" stroke="#d97706" stroke-width="1.5px" />
<rect x="529.18" y="666.5" width="89.2" height="36" rx="18" ry="18" fill="#dcfce7" stroke="#16a34a" stroke-width="2px" />
<rect x="254.82500000000005" y="742.5" width="246.50000000000003" height="36" rx="0" ry="0" fill="#fafafa" stroke="#d4d4d4" stroke-width="0.75px" />
<text x="224.91250000000002" y="58" text-anchor="middle" dy="0.35em" font-size="13" font-weight="500" fill="#1e40af">Trader</text>
<text x="224.91250000000002" y="151" text-anchor="middle" dy="0.35em" font-size="13" font-weight="500" fill="#0c4a6e">Pending</text>
<text x="109.62500000000006" y="684.5" text-anchor="middle" dy="0.35em" font-size="13" font-weight="500" fill="#92400e">Failed: Expired</text>
<text x="340.20000000000005" y="300.475" text-anchor="middle" dy="0.35em" font-size="13" font-weight="500" fill="#1e293b">Oracle Policy</text>
<text x="194.82500000000005" y="520.725" text-anchor="middle" dy="0.35em" font-size="13" font-weight="500" fill="#991b1b">Revert: Wait</text>
<text x="340.20000000000005" y="520.725" text-anchor="middle" dy="0.35em" font-size="13" font-weight="500" fill="#991b1b">Revert: Retry</text>
<text x="515.45" y="520.725" text-anchor="middle" dy="0.35em" font-size="13" font-weight="500" fill="#1e293b">Slippage / Engine</text>
<text x="378.07500000000005" y="684.5" text-anchor="middle" dy="0.35em" font-size="13" font-weight="500" fill="#92400e">Failed</text>
<text x="573.78" y="684.5" text-anchor="middle" dy="0.35em" font-size="13" font-weight="500" fill="#166534">Executed</text>
<text x="378.07500000000005" y="760.5" text-anchor="middle" dy="0.35em" font-size="13" font-weight="500" fill="#737373">Delete Order and Advance Queue</text>
</svg>