<svg xmlns="http://www.w3.org/2000/svg" viewBox="0 0 697.6825 606" width="697.6825" height="606" style="--bg:#ffffff;--fg:#1f2328;--line:#9ca3af;--accent:#6b7280;--muted:#59636e;background:var(--bg)">
<style>
  @import url('https://fonts.googleapis.com/css2?family=Inter:wght@400;500;600;700&amp;display=swap');
  text { font-family: 'Inter', system-ui, sans-serif; }
  svg {
    /* Derived from --bg and --fg (overridable via --line, --accent, etc.) */
    --_text:          var(--fg);
    --_text-sec:      var(--muted, color-mix(in srgb, var(--fg) 60%, var(--bg)));
    --_text-muted:    var(--muted, color-mix(in srgb, var(--fg) 40%, var(--bg)));
    --_text-faint:    color-mix(in srgb, var(--fg) 25%, var(--bg));
    --_line:          var(--line, color-mix(in srgb, var(--fg) 30%, var(--bg)));
    --_arrow:         var(--accent, color-mix(in srgb, var(--fg) 50%, var(--bg)));
    --_node-fill:     var(--surface, color-mix(in srgb, var(--fg) 3%, var(--bg)));
    --_node-stroke:   var(--border, color-mix(in srgb, var(--fg) 20%, var(--bg)));
    --_group-fill:    var(--bg);
    --_group-hdr:     color-mix(in srgb, var(--fg) 5%, var(--bg));
    --_inner-stroke:  color-mix(in srgb, var(--fg) 12%, var(--bg));
    --_key-badge:     color-mix(in srgb, var(--fg) 10%, var(--bg));
  }
</style>
<defs>
  <marker id="arrowhead" markerWidth="8" markerHeight="4.8" refX="8" refY="2.4" orient="auto">
    <polygon points="0 0, 8 2.4, 0 4.8" fill="var(--_arrow)" />
  </marker>
  <marker id="arrowhead-start" markerWidth="8" markerHeight="4.8" refX="0" refY="2.4" orient="auto-start-reverse">
    <polygon points="8 0, 0 2.4, 8 4.8" fill="var(--_arrow)" />
  </marker>
</defs>
<polyline points="334.925,76 334.925,133" fill="none" stroke="var(--_line)" stroke-width="0.75" marker-end="url(#arrowhead)" />
<polyline points="334.925,169 334.925,197.5 432.63750000000005,197.5 432.63750000000005,244 456.22749999999996,244" fill="none" stroke="var(--_line)" stroke-width="0.75" marker-end="url(#arrowhead)" />
<polyline points="518.7025,226 518.7025,197.5 573.6025,197.5 573.6025,58 372.375,58" fill="none" stroke="var(--_line)" stroke-width="0.75" marker-end="url(#arrowhead)" />
<polyline points="334.925,76 334.925,104.5 116.775,104.5 116.775,133" fill="none" stroke="var(--_line)" stroke-width="0.75" marker-end="url(#arrowhead)" />
<polyline points="116.775,169 116.775,226" fill="none" stroke="var(--_line)" stroke-width="0.75" marker-end="url(#arrowhead)" />
<polyline points="116.775,262 116.775,302" fill="none" stroke="var(--_line)" stroke-width="0.75" marker-end="url(#arrowhead)" />
<polyline points="116.775,338 116.775,378" fill="none" stroke="var(--_line)" stroke-width="0.75" marker-end="url(#arrowhead)" />
<polyline points="334.925,169 334.925,197.5 280.025,197.5 280.025,226" fill="none" stroke="var(--_line)" stroke-width="0.75" marker-end="url(#arrowhead)" />
<polyline points="280.025,262 280.025,302" fill="none" stroke="var(--_line)" stroke-width="0.75" marker-end="url(#arrowhead)" />
<polyline points="280.025,338 280.025,378" fill="none" stroke="var(--_line)" stroke-width="0.75" marker-end="url(#arrowhead)" />
<polyline points="280.025,414 280.025,454" fill="none" stroke="var(--_line)" stroke-width="0.75" marker-end="url(#arrowhead)" />
<polyline points="518.7025,262 518.7025,302" fill="none" stroke="var(--_line)" stroke-width="0.75" marker-end="url(#arrowhead)" />
<polyline points="518.7025,338 518.7025,378" fill="none" stroke="var(--_line)" stroke-width="0.75" marker-end="url(#arrowhead)" />
<polyline points="518.7025,414 518.7025,454" fill="none" stroke="var(--_line)" stroke-width="0.75" marker-end="url(#arrowhead)" />
<polyline points="518.7025,490 518.7025,530" fill="none" stroke="var(--_line)" stroke-width="0.75" marker-end="url(#arrowhead)" />
<rect x="243.985" y="91" width="181.88" height="27" rx="4" ry="4" fill="var(--bg)" stroke="var(--_inner-stroke)" stroke-width="0.5" />
<text x="334.925" y="104.5" text-anchor="middle" dy="0.35em" font-size="11" font-weight="400" fill="var(--_text-muted)">Fri 19:00 UTC or admin runway</text>
<rect x="338.83750000000003" y="184" width="187.6" height="27" rx="4" ry="4" fill="var(--bg)" stroke="var(--_inner-stroke)" stroke-width="0.5" />
<text x="432.63750000000005" y="197.5" text-anchor="middle" dy="0.35em" font-size="11" font-weight="400" fill="var(--_text-muted)">Fri 22:00 UTC or admin holiday</text>
<rect x="485.5225" y="137.5" width="176.16" height="27" rx="4" ry="4" fill="var(--bg)" stroke="var(--_inner-stroke)" stroke-width="0.5" />
<text x="573.6025" y="151" text-anchor="middle" dy="0.35em" font-size="11" font-weight="400" fill="var(--_text-muted)">Sun 21:00 UTC or holiday end</text>
<rect x="297.475" y="40" width="74.9" height="36" rx="18" ry="18" fill="#dbeafe" stroke="#2563eb" stroke-width="2px" />
<rect x="268.875" y="133" width="132.10000000000002" height="36" rx="18" ry="18" fill="#dbeafe" stroke="#2563eb" stroke-width="2px" />
<rect x="456.22749999999996" y="226" width="124.95" height="36" rx="18" ry="18" fill="#dbeafe" stroke="#2563eb" stroke-width="2px" />
<rect x="54.300000000000004" y="133" width="124.95" height="36" rx="0" ry="0" fill="#e0f2fe" stroke="#0284c7" stroke-width="1.5px" />
<rect x="40" y="226" width="153.55" height="36" rx="0" ry="0" fill="#e0f2fe" stroke="#0284c7" stroke-width="1.5px" />
<rect x="54.300000000000004" y="302" width="124.95" height="36" rx="0" ry="0" fill="#e0f2fe" stroke="#0284c7" stroke-width="1.5px" />
<rect x="57.875" y="378" width="117.80000000000001" height="36" rx="0" ry="0" fill="#e0f2fe" stroke="#0284c7" stroke-width="1.5px" />
<rect x="228.27499999999998" y="226" width="103.5" height="36" rx="0" ry="0" fill="#e0f2fe" stroke="#0284c7" stroke-width="1.5px" />
<rect x="203.24999999999997" y="302" width="153.55" height="36" rx="0" ry="0" fill="#e0f2fe" stroke="#0284c7" stroke-width="1.5px" />
<rect x="217.54999999999998" y="378" width="124.95" height="36" rx="0" ry="0" fill="#e0f2fe" stroke="#0284c7" stroke-width="1.5px" />
<rect x="228.27499999999998" y="454" width="103.5" height="36" rx="0" ry="0" fill="#e0f2fe" stroke="#0284c7" stroke-width="1.5px" />
<rect x="466.9525" y="302" width="103.5" height="36" rx="0" ry="0" fill="#e0f2fe" stroke="#0284c7" stroke-width="1.5px" />
<rect x="409.7525" y="378" width="217.9" height="36" rx="0" ry="0" fill="#e0f2fe" stroke="#0284c7" stroke-width="1.5px" />
<rect x="459.8025" y="454" width="117.80000000000001" height="36" rx="0" ry="0" fill="#e0f2fe" stroke="#0284c7" stroke-width="1.5px" />
<rect x="466.9525" y="530" width="103.5" height="36" rx="0" ry="0" fill="#e0f2fe" stroke="#0284c7" stroke-width="1.5px" />
<text x="334.925" y="58" text-anchor="middle" dy="0.35em" font-size="13" font-weight="500" fill="#1e40af">Normal</text>
<text x="334.925" y="151" text-anchor="middle" dy="0.35em" font-size="13" font-weight="500" fill="#1e40af">FAD Close-Only</text>
<text x="518.7025" y="244" text-anchor="middle" dy="0.35em" font-size="13" font-weight="500" fill="#1e40af">Frozen Oracle</text>
<text x="116.775" y="151" text-anchor="middle" dy="0.35em" font-size="13" font-weight="500" fill="#0c4a6e">opens allowed</text>
<text x="116.775" y="244" text-anchor="middle" dy="0.35em" font-size="13" font-weight="500" fill="#0c4a6e">staleness: normal</text>
<text x="116.775" y="320" text-anchor="middle" dy="0.35em" font-size="13" font-weight="500" fill="#0c4a6e">MEV checks on</text>
<text x="116.775" y="396" text-anchor="middle" dy="0.35em" font-size="13" font-weight="500" fill="#0c4a6e">maint margin</text>
<text x="280.025" y="244" text-anchor="middle" dy="0.35em" font-size="13" font-weight="500" fill="#0c4a6e">close-only</text>
<text x="280.025" y="320" text-anchor="middle" dy="0.35em" font-size="13" font-weight="500" fill="#0c4a6e">staleness: normal</text>
<text x="280.025" y="396" text-anchor="middle" dy="0.35em" font-size="13" font-weight="500" fill="#0c4a6e">MEV checks on</text>
<text x="280.025" y="472" text-anchor="middle" dy="0.35em" font-size="13" font-weight="500" fill="#0c4a6e">fad margin</text>
<text x="518.7025" y="320" text-anchor="middle" dy="0.35em" font-size="13" font-weight="500" fill="#0c4a6e">close-only</text>
<text x="518.7025" y="396" text-anchor="middle" dy="0.35em" font-size="13" font-weight="500" fill="#0c4a6e">staleness: fadMaxStaleness</text>
<text x="518.7025" y="472" text-anchor="middle" dy="0.35em" font-size="13" font-weight="500" fill="#0c4a6e">MEV bypassed</text>
<text x="518.7025" y="548" text-anchor="middle" dy="0.35em" font-size="13" font-weight="500" fill="#0c4a6e">fad margin</text>
</svg>