<svg xmlns="http://www.w3.org/2000/svg" viewBox="0 0 799.0725 606" width="799.0725" height="606" style="--bg:#ffffff;--fg:#1f2328;--line:#9ca3af;--accent:#6b7280;--muted:#59636e;background:var(--bg)">
<style>
  @import url('https://fonts.googleapis.com/css2?family=Inter:wght@400;500;600;700&amp;display=swap');
  text { font-family: 'Inter', system-ui, sans-serif; }
  svg {
    /* Derived from --bg and --fg (overridable via --line, --accent, etc.) */
    --_text:          var(--fg);
    --_text-sec:      var(--muted, color-mix(in srgb, var(--fg) 60%, var(--bg)));
    --_text-muted:    var(--muted, color-mix(in srgb, var(--fg) 40%, var(--bg)));
    --_text-faint:    color-mix(in srgb, var(--fg) 25%, var(--bg));
    --_line:          var(--line, color-mix(in srgb, var(--fg) 30%, var(--bg)));
    --_arrow:         var(--accent, color-mix(in srgb, var(--fg) 50%, var(--bg)));
    --_node-fill:     var(--surface, color-mix(in srgb, var(--fg) 3%, var(--bg)));
    --_node-stroke:   var(--border, color-mix(in srgb, var(--fg) 20%, var(--bg)));
    --_group-fill:    var(--bg);
    --_group-hdr:     color-mix(in srgb, var(--fg) 5%, var(--bg));
    --_inner-stroke:  color-mix(in srgb, var(--fg) 12%, var(--bg));
    --_key-badge:     color-mix(in srgb, var(--fg) 10%, var(--bg));
  }
</style>
<defs>
  <marker id="arrowhead" markerWidth="8" markerHeight="4.8" refX="8" refY="2.4" orient="auto">
    <polygon points="0 0, 8 2.4, 0 4.8" fill="var(--_arrow)" />
  </marker>
  <marker id="arrowhead-start" markerWidth="8" markerHeight="4.8" refX="0" refY="2.4" orient="auto-start-reverse">
    <polygon points="8 0, 0 2.4, 8 4.8" fill="var(--_arrow)" />
  </marker>
</defs>
<polyline points="201.00000000000006,226 201.00000000000006,197.5 126.94000000000005,197.5 126.94000000000005,58 323.94000000000005,58" fill="none" stroke="var(--_line)" stroke-width="0.75" marker-end="url(#arrowhead)" />
<polyline points="389.99000000000007,76 389.99000000000007,104.5 669.2725,104.5 669.2725,151 656.2575,151" fill="none" stroke="var(--_line)" stroke-width="0.75" marker-end="url(#arrowhead)" />
<polyline points="593.7825,133 593.7825,104.5 518.2925,104.5 518.2925,58 456.0400000000001,58" fill="none" stroke="var(--_line)" stroke-width="0.75" marker-end="url(#arrowhead)" />
<polyline points="389.99000000000007,76 389.99000000000007,104.5 275.06000000000006,104.5 275.06000000000006,244 238.45000000000005,244" fill="none" stroke="var(--_line)" stroke-width="0.75" marker-end="url(#arrowhead)" />
<polyline points="593.7825,169 593.7825,197.5 201.00000000000006,197.5 201.00000000000006,226" fill="none" stroke="var(--_line)" stroke-width="0.75" stroke-dasharray="4 4" marker-end="url(#arrowhead)" />
<polyline points="201.00000000000006,262 201.00000000000006,302" fill="none" stroke="var(--_line)" stroke-width="0.75" marker-end="url(#arrowhead)" />
<polyline points="201.00000000000006,338 201.00000000000006,378" fill="none" stroke="var(--_line)" stroke-width="0.75" marker-end="url(#arrowhead)" />
<polyline points="201.00000000000006,414 201.00000000000006,454" fill="none" stroke="var(--_line)" stroke-width="0.75" marker-end="url(#arrowhead)" />
<polyline points="201.00000000000006,490 201.00000000000006,530" fill="none" stroke="var(--_line)" stroke-width="0.75" marker-end="url(#arrowhead)" />
<polyline points="389.99000000000007,76 389.99000000000007,133" fill="none" stroke="var(--_line)" stroke-width="0.75" marker-end="url(#arrowhead)" />
<polyline points="389.99000000000007,169 389.99000000000007,226" fill="none" stroke="var(--_line)" stroke-width="0.75" marker-end="url(#arrowhead)" />
<polyline points="389.99000000000007,262 389.99000000000007,302" fill="none" stroke="var(--_line)" stroke-width="0.75" marker-end="url(#arrowhead)" />
<polyline points="389.99000000000007,338 389.99000000000007,378" fill="none" stroke="var(--_line)" stroke-width="0.75" marker-end="url(#arrowhead)" />
<polyline points="593.7825,169 593.7825,226" fill="none" stroke="var(--_line)" stroke-width="0.75" marker-end="url(#arrowhead)" />
<polyline points="593.7825,262 593.7825,302" fill="none" stroke="var(--_line)" stroke-width="0.75" marker-end="url(#arrowhead)" />
<polyline points="593.7825,338 593.7825,378" fill="none" stroke="var(--_line)" stroke-width="0.75" marker-end="url(#arrowhead)" />
<polyline points="593.7825,414 593.7825,454" fill="none" stroke="var(--_line)" stroke-width="0.75" marker-end="url(#arrowhead)" />
<rect x="36.00000000000006" y="137.5" width="181.88" height="27" rx="4" ry="4" fill="var(--bg)" stroke="var(--_inner-stroke)" stroke-width="0.5" />
<text x="126.94000000000005" y="151" text-anchor="middle" dy="0.35em" font-size="11" font-weight="400" fill="var(--_text-muted)">Fri 21:30 UTC or admin runway</text>
<rect x="575.4725000000001" y="91" width="187.6" height="27" rx="4" ry="4" fill="var(--bg)" stroke="var(--_inner-stroke)" stroke-width="0.5" />
<text x="669.2725" y="104.5" text-anchor="middle" dy="0.35em" font-size="11" font-weight="400" fill="var(--_text-muted)">Fri 22:00 UTC or admin holiday</text>
<rect x="473.1125" y="91" width="90.36" height="27" rx="4" ry="4" fill="var(--bg)" stroke="var(--_inner-stroke)" stroke-width="0.5" />
<text x="518.2925" y="104.5" text-anchor="middle" dy="0.35em" font-size="11" font-weight="400" fill="var(--_text-muted)">Sun 21:00 UTC</text>
<rect x="229.88000000000005" y="137.5" width="90.36" height="27" rx="4" ry="4" fill="var(--bg)" stroke="var(--_inner-stroke)" stroke-width="0.5" />
<text x="275.06000000000006" y="151" text-anchor="middle" dy="0.35em" font-size="11" font-weight="400" fill="var(--_text-muted)">Sun 21:15 UTC</text>
<rect x="144.38000000000005" y="184" width="113.24000000000001" height="27" rx="4" ry="4" fill="var(--bg)" stroke="var(--_inner-stroke)" stroke-width="0.5" />
<text x="201.00000000000006" y="197.5" text-anchor="middle" dy="0.35em" font-size="11" font-weight="400" fill="var(--_text-muted)">admin holiday end</text>
<rect x="163.55000000000007" y="226" width="74.9" height="36" rx="18" ry="18" fill="#dbeafe" stroke="#2563eb" stroke-width="2px" />
<rect x="323.94000000000005" y="40" width="132.10000000000002" height="36" rx="18" ry="18" fill="#dbeafe" stroke="#2563eb" stroke-width="2px" />
<rect x="531.3075" y="133" width="124.95" height="36" rx="18" ry="18" fill="#dbeafe" stroke="#2563eb" stroke-width="2px" />
<rect x="138.52500000000006" y="302" width="124.95" height="36" rx="0" ry="0" fill="#e0f2fe" stroke="#0284c7" stroke-width="1.5px" />
<rect x="124.22500000000005" y="378" width="153.55" height="36" rx="0" ry="0" fill="#e0f2fe" stroke="#0284c7" stroke-width="1.5px" />
<rect x="138.52500000000006" y="454" width="124.95" height="36" rx="0" ry="0" fill="#e0f2fe" stroke="#0284c7" stroke-width="1.5px" />
<rect x="142.10000000000005" y="530" width="117.80000000000001" height="36" rx="0" ry="0" fill="#e0f2fe" stroke="#0284c7" stroke-width="1.5px" />
<rect x="338.24000000000007" y="133" width="103.5" height="36" rx="0" ry="0" fill="#e0f2fe" stroke="#0284c7" stroke-width="1.5px" />
<rect x="313.21500000000003" y="226" width="153.55" height="36" rx="0" ry="0" fill="#e0f2fe" stroke="#0284c7" stroke-width="1.5px" />
<rect x="327.51500000000004" y="302" width="124.95" height="36" rx="0" ry="0" fill="#e0f2fe" stroke="#0284c7" stroke-width="1.5px" />
<rect x="338.24000000000007" y="378" width="103.5" height="36" rx="0" ry="0" fill="#e0f2fe" stroke="#0284c7" stroke-width="1.5px" />
<rect x="542.0325" y="226" width="103.5" height="36" rx="0" ry="0" fill="#e0f2fe" stroke="#0284c7" stroke-width="1.5px" />
<rect x="484.83250000000004" y="302" width="217.9" height="36" rx="0" ry="0" fill="#e0f2fe" stroke="#0284c7" stroke-width="1.5px" />
<rect x="534.8825" y="378" width="117.80000000000001" height="36" rx="0" ry="0" fill="#e0f2fe" stroke="#0284c7" stroke-width="1.5px" />
<rect x="542.0325" y="454" width="103.5" height="36" rx="0" ry="0" fill="#e0f2fe" stroke="#0284c7" stroke-width="1.5px" />
<text x="201.00000000000006" y="244" text-anchor="middle" dy="0.35em" font-size="13" font-weight="500" fill="#1e40af">Normal</text>
<text x="389.99000000000007" y="58" text-anchor="middle" dy="0.35em" font-size="13" font-weight="500" fill="#1e40af">FAD Close-Only</text>
<text x="593.7825" y="151" text-anchor="middle" dy="0.35em" font-size="13" font-weight="500" fill="#1e40af">Frozen Oracle</text>
<text x="201.00000000000006" y="320" text-anchor="middle" dy="0.35em" font-size="13" font-weight="500" fill="#0c4a6e">opens allowed</text>
<text x="201.00000000000006" y="396" text-anchor="middle" dy="0.35em" font-size="13" font-weight="500" fill="#0c4a6e">staleness: normal</text>
<text x="201.00000000000006" y="472" text-anchor="middle" dy="0.35em" font-size="13" font-weight="500" fill="#0c4a6e">MEV checks on</text>
<text x="201.00000000000006" y="548" text-anchor="middle" dy="0.35em" font-size="13" font-weight="500" fill="#0c4a6e">maint margin</text>
<text x="389.99000000000007" y="151" text-anchor="middle" dy="0.35em" font-size="13" font-weight="500" fill="#0c4a6e">close-only</text>
<text x="389.99" y="244" text-anchor="middle" dy="0.35em" font-size="13" font-weight="500" fill="#0c4a6e">staleness: normal</text>
<text x="389.99000000000007" y="320" text-anchor="middle" dy="0.35em" font-size="13" font-weight="500" fill="#0c4a6e">MEV checks on</text>
<text x="389.99000000000007" y="396" text-anchor="middle" dy="0.35em" font-size="13" font-weight="500" fill="#0c4a6e">fad margin</text>
<text x="593.7825" y="244" text-anchor="middle" dy="0.35em" font-size="13" font-weight="500" fill="#0c4a6e">close-only</text>
<text x="593.7825" y="320" text-anchor="middle" dy="0.35em" font-size="13" font-weight="500" fill="#0c4a6e">staleness: fadMaxStaleness</text>
<text x="593.7825" y="396" text-anchor="middle" dy="0.35em" font-size="13" font-weight="500" fill="#0c4a6e">MEV bypassed</text>
<text x="593.7825" y="472" text-anchor="middle" dy="0.35em" font-size="13" font-weight="500" fill="#0c4a6e">fad margin</text>
</svg>