<svg xmlns="http://www.w3.org/2000/svg" viewBox="0 0 1430.1750000000002 378" width="1430.1750000000002" height="378" style="--bg:#ffffff;--fg:#1f2328;--line:#9ca3af;--accent:#6b7280;--muted:#59636e;background:var(--bg)">
<style>
  @import url('https://fonts.googleapis.com/css2?family=Inter:wght@400;500;600;700&amp;display=swap');
  text { font-family: 'Inter', system-ui, sans-serif; }
  svg {
    /* Derived from --bg and --fg (overridable via --line, --accent, etc.) */
    --_text:          var(--fg);
    --_text-sec:      var(--muted, color-mix(in srgb, var(--fg) 60%, var(--bg)));
    --_text-muted:    var(--muted, color-mix(in srgb, var(--fg) 40%, var(--bg)));
    --_text-faint:    color-mix(in srgb, var(--fg) 25%, var(--bg));
    --_line:          var(--line, color-mix(in srgb, var(--fg) 30%, var(--bg)));
    --_arrow:         var(--accent, color-mix(in srgb, var(--fg) 50%, var(--bg)));
    --_node-fill:     var(--surface, color-mix(in srgb, var(--fg) 3%, var(--bg)));
    --_node-stroke:   var(--border, color-mix(in srgb, var(--fg) 20%, var(--bg)));
    --_group-fill:    var(--bg);
    --_group-hdr:     color-mix(in srgb, var(--fg) 5%, var(--bg));
    --_inner-stroke:  color-mix(in srgb, var(--fg) 12%, var(--bg));
    --_key-badge:     color-mix(in srgb, var(--fg) 10%, var(--bg));
  }
</style>
<defs>
  <marker id="arrowhead" markerWidth="8" markerHeight="4.8" refX="8" refY="2.4" orient="auto">
    <polygon points="0 0, 8 2.4, 0 4.8" fill="var(--_arrow)" />
  </marker>
  <marker id="arrowhead-start" markerWidth="8" markerHeight="4.8" refX="0" refY="2.4" orient="auto-start-reverse">
    <polygon points="8 0, 0 2.4, 8 4.8" fill="var(--_arrow)" />
  </marker>
</defs>
<polyline points="747.3000000000001,76 747.3000000000001,104.5 605.475,104.5 605.475,133" fill="none" stroke="var(--_line)" stroke-width="0.75" marker-end="url(#arrowhead)" />
<polyline points="605.475,169 605.475,197.5 194.275,197.5 194.275,226" fill="none" stroke="var(--_line)" stroke-width="0.75" marker-end="url(#arrowhead)" />
<polyline points="605.475,169 605.475,226" fill="none" stroke="var(--_line)" stroke-width="0.75" marker-end="url(#arrowhead)" />
<polyline points="747.3000000000001,76 747.3000000000001,104.5 889.125,104.5 889.125,133" fill="none" stroke="var(--_line)" stroke-width="0.75" stroke-dasharray="4 4" />
<polyline points="605.475,169 605.475,197.5 1035.7,197.5 1035.7,226" fill="none" stroke="var(--_line)" stroke-width="0.75" stroke-dasharray="4 4" />
<polyline points="194.275,262 194.275,302" fill="none" stroke="var(--_line)" stroke-width="0.75" stroke-dasharray="4 4" />
<polyline points="605.475,262 605.475,302" fill="none" stroke="var(--_line)" stroke-width="0.75" stroke-dasharray="4 4" />
<rect x="517.395" y="91" width="176.16" height="27" rx="4" ry="4" fill="var(--bg)" stroke="var(--_inner-stroke)" stroke-width="0.5" />
<text x="605.475" y="104.5" text-anchor="middle" dy="0.35em" font-size="11" font-weight="400" fill="var(--_text-muted)">processOrder · isClose=false</text>
<rect x="126.215" y="184" width="136.12" height="27" rx="4" ry="4" fill="var(--bg)" stroke="var(--_inner-stroke)" stroke-width="0.5" />
<text x="194.275" y="197.5" text-anchor="middle" dy="0.35em" font-size="11" font-weight="400" fill="var(--_text-muted)">Full close · size → 0</text>
<rect x="511.675" y="184" width="187.6" height="27" rx="4" ry="4" fill="var(--bg)" stroke="var(--_inner-stroke)" stroke-width="0.5" />
<text x="605.475" y="197.5" text-anchor="middle" dy="0.35em" font-size="11" font-weight="400" fill="var(--_text-muted)">equity &lt; MMR · keeper triggers</text>
<rect x="691.975" y="40" width="110.65" height="36" rx="18" ry="18" fill="#dbeafe" stroke="#2563eb" stroke-width="2px" />
<rect x="535.85" y="133" width="139.25" height="36" rx="18" ry="18" fill="#e0f2fe" stroke="#0284c7" stroke-width="1.5px" />
<rect x="156.825" y="226" width="74.9" height="36" rx="18" ry="18" fill="#dcfce7" stroke="#16a34a" stroke-width="2px" />
<rect x="553.725" y="226" width="103.5" height="36" rx="18" ry="18" fill="#fee2e2" stroke="#dc2626" stroke-width="2px" />
<polygon points="711.1,133 1079.15,133 1079.15,169 711.1,169 699.1,151" fill="#fafafa" stroke="#d4d4d4" stroke-width="0.75px" />
<polygon points="693.225,226 1390.1750000000002,226 1390.1750000000002,262 693.225,262 681.225,244" fill="#fafafa" stroke="#d4d4d4" stroke-width="0.75px" />
<polygon points="52,302 348.55,302 348.55,338 52,338 40,320" fill="#fafafa" stroke="#d4d4d4" stroke-width="0.75px" />
<polygon points="384.55,302 838.4000000000001,302 838.4000000000001,338 384.55,338 372.55,320" fill="#fafafa" stroke="#d4d4d4" stroke-width="0.75px" />
<text x="747.3000000000001" y="58" text-anchor="middle" dy="0.35em" font-size="13" font-weight="500" fill="#1e40af">No Position</text>
<text x="605.475" y="151" text-anchor="middle" dy="0.35em" font-size="13" font-weight="500" fill="#0c4a6e">Active Position</text>
<text x="194.27499999999998" y="244" text-anchor="middle" dy="0.35em" font-size="13" font-weight="500" fill="#166534">Closed</text>
<text x="605.475" y="244" text-anchor="middle" dy="0.35em" font-size="13" font-weight="500" fill="#991b1b">Liquidated</text>
<text x="889.125" y="151" text-anchor="middle" dy="0.35em" font-size="13" font-weight="500" fill="#737373">IMR ≥ 150% MMR · min notional for keeper bounty</text>
<text x="1035.7" y="244" text-anchor="middle" dy="0.35em" font-size="13" font-weight="500" fill="#737373">While active: increase (same side) or partial close (dust guard) · each settles funding + VPI</text>
<text x="194.275" y="320" text-anchor="middle" dy="0.35em" font-size="13" font-weight="500" fill="#737373">PnL settled · position struct deleted</text>
<text x="605.475" y="320" text-anchor="middle" dy="0.35em" font-size="13" font-weight="500" fill="#737373">Margin seized · bounty paid · FAD: elevated MMR on weekends</text>
</svg>