<svg xmlns="http://www.w3.org/2000/svg" viewBox="0 0 853.325 1601.95" width="853.325" height="1601.95" style="--bg:#ffffff;--fg:#1f2328;--line:#9ca3af;--accent:#6b7280;--muted:#59636e;background:var(--bg)">
<style>
  @import url('https://fonts.googleapis.com/css2?family=Inter:wght@400;500;600;700&amp;display=swap');
  text { font-family: 'Inter', system-ui, sans-serif; }
  svg {
    /* Derived from --bg and --fg (overridable via --line, --accent, etc.) */
    --_text:          var(--fg);
    --_text-sec:      var(--muted, color-mix(in srgb, var(--fg) 60%, var(--bg)));
    --_text-muted:    var(--muted, color-mix(in srgb, var(--fg) 40%, var(--bg)));
    --_text-faint:    color-mix(in srgb, var(--fg) 25%, var(--bg));
    --_line:          var(--line, color-mix(in srgb, var(--fg) 30%, var(--bg)));
    --_arrow:         var(--accent, color-mix(in srgb, var(--fg) 50%, var(--bg)));
    --_node-fill:     var(--surface, color-mix(in srgb, var(--fg) 3%, var(--bg)));
    --_node-stroke:   var(--border, color-mix(in srgb, var(--fg) 20%, var(--bg)));
    --_group-fill:    var(--bg);
    --_group-hdr:     color-mix(in srgb, var(--fg) 5%, var(--bg));
    --_inner-stroke:  color-mix(in srgb, var(--fg) 12%, var(--bg));
    --_key-badge:     color-mix(in srgb, var(--fg) 10%, var(--bg));
  }
</style>
<defs>
  <marker id="arrowhead" markerWidth="8" markerHeight="4.8" refX="8" refY="2.4" orient="auto">
    <polygon points="0 0, 8 2.4, 0 4.8" fill="var(--_arrow)" />
  </marker>
  <marker id="arrowhead-start" markerWidth="8" markerHeight="4.8" refX="0" refY="2.4" orient="auto-start-reverse">
    <polygon points="8 0, 0 2.4, 8 4.8" fill="var(--_arrow)" />
  </marker>
</defs>
<polyline points="211.55,76 211.55,133" fill="none" stroke="var(--_line)" stroke-width="0.75" marker-end="url(#arrowhead)" />
<polyline points="167.58890942698707,302.3389094269871 167.58890942698707,374.8 116.775,374.8 116.775,474.07500000000005" fill="none" stroke="var(--_line)" stroke-width="0.75" marker-end="url(#arrowhead)" />
<polyline points="255.51109057301295,302.3389094269871 255.51109057301295,374.8 306.32500000000005,374.8 306.32500000000005,403.3" fill="none" stroke="var(--_line)" stroke-width="0.75" marker-end="url(#arrowhead)" />
<polyline points="258.96656141223275,533.4915614122327 258.96656141223275,609.35 172.225,609.35 172.225,769.4000000000001" fill="none" stroke="var(--_line)" stroke-width="0.75" marker-end="url(#arrowhead)" />
<polyline points="353.68343858776734,533.4915614122327 353.68343858776734,609.35 440.42500000000007,609.35 440.42500000000007,637.8500000000001" fill="none" stroke="var(--_line)" stroke-width="0.75" marker-end="url(#arrowhead)" />
<polyline points="384.4028451001054,880.9278451001054 384.4028451001054,965.45 333.77500000000003,965.45 333.77500000000003,993.95" fill="none" stroke="var(--_line)" stroke-width="0.75" marker-end="url(#arrowhead)" />
<polyline points="496.4471548998947,880.9278451001054 496.4471548998947,965.45 547.075,965.45 547.075,993.95" fill="none" stroke="var(--_line)" stroke-width="0.75" marker-end="url(#arrowhead)" />
<polyline points="547.075,1029.95 547.075,1069.95" fill="none" stroke="var(--_line)" stroke-width="0.75" marker-end="url(#arrowhead)" />
<polyline points="547.075,1105.95 547.075,1145.95" fill="none" stroke="var(--_line)" stroke-width="0.75" marker-end="url(#arrowhead)" />
<polyline points="547.075,1181.95 547.075,1221.95" fill="none" stroke="var(--_line)" stroke-width="0.75" marker-end="url(#arrowhead)" />
<polyline points="547.075,1257.95 547.075,1297.95" fill="none" stroke="var(--_line)" stroke-width="0.75" marker-end="url(#arrowhead)" />
<polyline points="547.075,1333.95 547.075,1373.95" fill="none" stroke="var(--_line)" stroke-width="0.75" marker-end="url(#arrowhead)" />
<polyline points="547.075,1409.95 547.075,1449.95" fill="none" stroke="var(--_line)" stroke-width="0.75" marker-end="url(#arrowhead)" />
<polyline points="547.075,1485.95 547.075,1525.95" fill="none" stroke="var(--_line)" stroke-width="0.75" marker-end="url(#arrowhead)" />
<rect x="137.77" y="91" width="147.56" height="27" rx="4" ry="4" fill="var(--bg)" stroke="var(--_inner-stroke)" stroke-width="0.5" />
<text x="211.55" y="104.5" text-anchor="middle" dy="0.35em" font-size="11" font-weight="400" fill="var(--_text-muted)">maxWithdraw / maxRedeem</text>
<rect x="103.055" y="361.3" width="27.44" height="27" rx="4" ry="4" fill="var(--bg)" stroke="var(--_inner-stroke)" stroke-width="0.5" />
<text x="116.775" y="374.8" text-anchor="middle" dy="0.35em" font-size="11" font-weight="400" fill="var(--_text-muted)">No</text>
<rect x="289.74500000000006" y="361.3" width="33.16" height="27" rx="4" ry="4" fill="var(--bg)" stroke="var(--_inner-stroke)" stroke-width="0.5" />
<text x="306.32500000000005" y="374.8" text-anchor="middle" dy="0.35em" font-size="11" font-weight="400" fill="var(--_text-muted)">Yes</text>
<rect x="158.505" y="595.85" width="27.44" height="27" rx="4" ry="4" fill="var(--bg)" stroke="var(--_inner-stroke)" stroke-width="0.5" />
<text x="172.225" y="609.35" text-anchor="middle" dy="0.35em" font-size="11" font-weight="400" fill="var(--_text-muted)">No</text>
<rect x="423.8450000000001" y="595.85" width="33.16" height="27" rx="4" ry="4" fill="var(--bg)" stroke="var(--_inner-stroke)" stroke-width="0.5" />
<text x="440.42500000000007" y="609.35" text-anchor="middle" dy="0.35em" font-size="11" font-weight="400" fill="var(--_text-muted)">Yes</text>
<rect x="320.055" y="951.95" width="27.44" height="27" rx="4" ry="4" fill="var(--bg)" stroke="var(--_inner-stroke)" stroke-width="0.5" />
<text x="333.77500000000003" y="965.45" text-anchor="middle" dy="0.35em" font-size="11" font-weight="400" fill="var(--_text-muted)">No</text>
<rect x="530.495" y="951.95" width="33.16" height="27" rx="4" ry="4" fill="var(--bg)" stroke="var(--_inner-stroke)" stroke-width="0.5" />
<text x="547.075" y="965.45" text-anchor="middle" dy="0.35em" font-size="11" font-weight="400" fill="var(--_text-muted)">Yes</text>
<rect x="163.375" y="40" width="96.35000000000001" height="36" rx="18" ry="18" fill="#dbeafe" stroke="#2563eb" stroke-width="2px" />
<polygon points="211.55,133 318.20000000000005,239.65 211.55,346.3 104.9,239.65" fill="var(--_node-fill)" stroke="var(--_node-stroke)" stroke-width="0.75" />
<rect x="40" y="474.07500000000005" width="153.55" height="36" rx="18" ry="18" fill="#fee2e2" stroke="#dc2626" stroke-width="2px" />
<polygon points="306.32500000000005,403.30000000000007 395.1,492.07500000000005 306.32500000000005,580.85 217.55000000000004,492.07500000000005" fill="var(--_node-fill)" stroke="var(--_node-stroke)" stroke-width="0.75" />
<rect x="77.57499999999999" y="769.4000000000001" width="189.3" height="36" rx="18" ry="18" fill="#fee2e2" stroke="#dc2626" stroke-width="2px" />
<polygon points="440.42500000000007,637.8500000000001 589.9750000000001,787.4000000000001 440.42500000000007,936.95 290.87500000000006,787.4000000000001" fill="var(--_node-fill)" stroke="var(--_node-stroke)" stroke-width="0.75" />
<rect x="249.85000000000002" y="993.95" width="167.85000000000002" height="36" rx="18" ry="18" fill="#fee2e2" stroke="#dc2626" stroke-width="2px" />
<rect x="441.70000000000005" y="993.95" width="210.75000000000003" height="36" rx="0" ry="0" fill="#e0f2fe" stroke="#0284c7" stroke-width="1.5px" />
<rect x="484.6" y="1069.95" width="124.95" height="36" rx="0" ry="0" fill="#e0f2fe" stroke="#0284c7" stroke-width="1.5px" />
<rect x="280.82500000000005" y="1145.95" width="532.5" height="36" rx="0" ry="0" fill="#e0f2fe" stroke="#0284c7" stroke-width="1.5px" />
<rect x="498.90000000000003" y="1221.95" width="96.35000000000001" height="36" rx="0" ry="0" fill="#e0f2fe" stroke="#0284c7" stroke-width="1.5px" />
<rect x="391.65000000000003" y="1297.95" width="310.85" height="36" rx="0" ry="0" fill="#e0f2fe" stroke="#0284c7" stroke-width="1.5px" />
<rect x="448.85" y="1373.95" width="196.45000000000002" height="36" rx="0" ry="0" fill="#e0f2fe" stroke="#0284c7" stroke-width="1.5px" />
<rect x="413.1" y="1449.95" width="267.95000000000005" height="36" rx="0" ry="0" fill="#e0f2fe" stroke="#0284c7" stroke-width="1.5px" />
<rect x="463.15000000000003" y="1525.95" width="167.85000000000002" height="36" rx="18" ry="18" fill="#dcfce7" stroke="#16a34a" stroke-width="2px" />
<text x="211.55" y="58" text-anchor="middle" dy="0.35em" font-size="13" font-weight="500" fill="#1e40af">LP Holder</text>
<text x="211.55" y="239.65" text-anchor="middle" dy="0.35em" font-size="13" font-weight="500" fill="var(--_text)">Past deposit cooldown?</text>
<text x="116.775" y="492.07500000000005" text-anchor="middle" dy="0.35em" font-size="13" font-weight="500" fill="#991b1b">Blocked: cooldown</text>
<text x="306.32500000000005" y="492.07500000000005" text-anchor="middle" dy="0.35em" font-size="13" font-weight="500" fill="var(--_text)">degradedMode off?</text>
<text x="172.225" y="787.4000000000001" text-anchor="middle" dy="0.35em" font-size="13" font-weight="500" fill="#991b1b">Blocked: degraded mode</text>
<text x="440.42500000000007" y="787.4000000000001" text-anchor="middle" dy="0.35em" font-size="13" font-weight="500" fill="var(--_text)">Fresh mark required and available?</text>
<text x="333.77500000000003" y="1011.95" text-anchor="middle" dy="0.35em" font-size="13" font-weight="500" fill="#991b1b">Blocked: stale mark</text>
<text x="547.075" y="1011.95" text-anchor="middle" dy="0.35em" font-size="13" font-weight="500" fill="#0c4a6e">Build withdrawal snapshot</text>
<text x="547.075" y="1087.95" text-anchor="middle" dy="0.35em" font-size="13" font-weight="500" fill="#0c4a6e">Reserved USDC</text>
<text x="547.075" y="1163.95" text-anchor="middle" dy="0.35em" font-size="13" font-weight="500" fill="#0c4a6e">max liability + funding reserve + deferred liabilities + protocol fees</text>
<text x="547.075" y="1239.95" text-anchor="middle" dy="0.35em" font-size="13" font-weight="500" fill="#0c4a6e">Free USDC</text>
<text x="547.075" y="1315.95" text-anchor="middle" dy="0.35em" font-size="13" font-weight="500" fill="#0c4a6e">net physical assets minus reserved USDC</text>
<text x="547.075" y="1391.95" text-anchor="middle" dy="0.35em" font-size="13" font-weight="500" fill="#0c4a6e">Cap by tranche priority</text>
<text x="547.075" y="1467.95" text-anchor="middle" dy="0.35em" font-size="13" font-weight="500" fill="#0c4a6e">senior first, junior subordinated</text>
<text x="547.075" y="1543.95" text-anchor="middle" dy="0.35em" font-size="13" font-weight="500" fill="#166534">Withdrawable Amount</text>
</svg>