<svg xmlns="http://www.w3.org/2000/svg" viewBox="0 0 1363.4024999999997 1284.95" width="1363.4024999999997" height="1284.95" style="--bg:#ffffff;--fg:#1f2328;--line:#9ca3af;--accent:#6b7280;--muted:#59636e;background:var(--bg)">
<style>
  @import url('https://fonts.googleapis.com/css2?family=Inter:wght@400;500;600;700&amp;display=swap');
  text { font-family: 'Inter', system-ui, sans-serif; }
  svg {
    /* Derived from --bg and --fg (overridable via --line, --accent, etc.) */
    --_text:          var(--fg);
    --_text-sec:      var(--muted, color-mix(in srgb, var(--fg) 60%, var(--bg)));
    --_text-muted:    var(--muted, color-mix(in srgb, var(--fg) 40%, var(--bg)));
    --_text-faint:    color-mix(in srgb, var(--fg) 25%, var(--bg));
    --_line:          var(--line, color-mix(in srgb, var(--fg) 30%, var(--bg)));
    --_arrow:         var(--accent, color-mix(in srgb, var(--fg) 50%, var(--bg)));
    --_node-fill:     var(--surface, color-mix(in srgb, var(--fg) 3%, var(--bg)));
    --_node-stroke:   var(--border, color-mix(in srgb, var(--fg) 20%, var(--bg)));
    --_group-fill:    var(--bg);
    --_group-hdr:     color-mix(in srgb, var(--fg) 5%, var(--bg));
    --_inner-stroke:  color-mix(in srgb, var(--fg) 12%, var(--bg));
    --_key-badge:     color-mix(in srgb, var(--fg) 10%, var(--bg));
  }
</style>
<defs>
  <marker id="arrowhead" markerWidth="8" markerHeight="4.8" refX="8" refY="2.4" orient="auto">
    <polygon points="0 0, 8 2.4, 0 4.8" fill="var(--_arrow)" />
  </marker>
  <marker id="arrowhead-start" markerWidth="8" markerHeight="4.8" refX="0" refY="2.4" orient="auto-start-reverse">
    <polygon points="8 0, 0 2.4, 8 4.8" fill="var(--_arrow)" />
  </marker>
</defs>
<polyline points="386.9174999999998,76 386.9174999999998,133" fill="none" stroke="var(--_line)" stroke-width="0.75" marker-end="url(#arrowhead)" />
<polyline points="386.9174999999998,169 386.9174999999998,197.5 92.61999999999989,197.5 92.61999999999989,1056.95" fill="none" stroke="var(--_line)" stroke-width="0.75" marker-end="url(#arrowhead)" />
<polyline points="386.9174999999998,169 386.9174999999998,197.5 506.0024999999998,197.5 506.0024999999998,226.00000000000003" fill="none" stroke="var(--_line)" stroke-width="0.75" marker-end="url(#arrowhead)" />
<polyline points="459.0954645023588,328.04296450235904 459.0954645023588,403.45 330.78999999999985,403.45 330.78999999999985,499.15" fill="none" stroke="var(--_line)" stroke-width="0.75" marker-end="url(#arrowhead)" />
<polyline points="552.9095354976408,328.04296450235904 552.9095354976408,403.45 681.2149999999998,403.45 681.2149999999998,499.15" fill="none" stroke="var(--_line)" stroke-width="0.75" marker-end="url(#arrowhead)" />
<polyline points="448.8103826164115,317.75788261641173 448.8103826164115,403.45 165.23999999999978,403.45 165.23999999999978,499.15" fill="none" stroke="var(--_line)" stroke-width="0.75" marker-end="url(#arrowhead)" />
<polyline points="569.37510426054,311.5773957394599 569.37510426054,403.45 1093.7849999999999,403.45 1093.7849999999999,431.95" fill="none" stroke="var(--_line)" stroke-width="0.75" marker-end="url(#arrowhead)" />
<polyline points="1044.7793619346521,553.3443619346522 1044.7793619346521,630.85 939.8399999999998,630.85 939.8399999999998,712.25" fill="none" stroke="var(--_line)" stroke-width="0.75" marker-end="url(#arrowhead)" />
<polyline points="1127.1885022055874,568.9464977944125 1127.1885022055874,630.85 1167.11,630.85 1167.11,659.35" fill="none" stroke="var(--_line)" stroke-width="0.75" marker-end="url(#arrowhead)" />
<polyline points="1128.2373580404007,762.2773580404008 1128.2373580404007,829.6500000000001 1046.4649999999997,829.6500000000001 1046.4649999999997,911.0500000000001" fill="none" stroke="var(--_line)" stroke-width="0.75" marker-end="url(#arrowhead)" />
<polyline points="1190.7528418158652,777.5071581841347 1190.7528418158652,829.6500000000001 1216.8399999999997,829.6500000000001 1216.8399999999997,858.1500000000001" fill="none" stroke="var(--_line)" stroke-width="0.75" marker-end="url(#arrowhead)" />
<polyline points="1189.614707568363,972.7247075683633 1189.614707568363,1028.45 1154.8774999999998,1028.45 1154.8774999999998,1056.95" fill="none" stroke="var(--_line)" stroke-width="0.75" marker-end="url(#arrowhead)" />
<polyline points="1244.0652924316366,972.7247075683632 1244.0652924316366,1028.45 1278.8024999999998,1028.45 1278.8024999999998,1056.95" fill="none" stroke="var(--_line)" stroke-width="0.75" marker-end="url(#arrowhead)" />
<polyline points="92.61999999999989,1092.95 92.61999999999989,1150.95 869.9099999999999,1150.95" fill="none" stroke="var(--_line)" stroke-width="0.75" marker-end="url(#arrowhead)" />
<polyline points="165.23999999999978,535.15 165.23999999999978,1150.95 869.9099999999999,1150.95" fill="none" stroke="var(--_line)" stroke-width="0.75" marker-end="url(#arrowhead)" />
<polyline points="939.8399999999998,748.25 939.8399999999998,1150.95 869.9099999999999,1150.95" fill="none" stroke="var(--_line)" stroke-width="0.75" marker-end="url(#arrowhead)" />
<polyline points="1046.4649999999997,947.0500000000001 1046.4649999999997,1150.95 1116.4099999999999,1150.95" fill="none" stroke="var(--_line)" stroke-width="0.75" marker-end="url(#arrowhead)" />
<polyline points="1154.8774999999998,1092.95 1154.8774999999998,1150.95 1116.4099999999999,1150.95" fill="none" stroke="var(--_line)" stroke-width="0.75" marker-end="url(#arrowhead)" />
<polyline points="1278.8024999999998,1092.95 1278.8024999999998,1150.95 1116.4099999999999,1150.95" fill="none" stroke="var(--_line)" stroke-width="0.75" marker-end="url(#arrowhead)" />
<polyline points="330.78999999999985,535.15 330.78999999999985,712.25" fill="none" stroke="var(--_line)" stroke-width="0.75" stroke-dasharray="4 4" />
<polyline points="681.2149999999998,535.15 681.2149999999998,712.25" fill="none" stroke="var(--_line)" stroke-width="0.75" stroke-dasharray="4 4" />
<polyline points="993.1599999999999,1168.95 993.1599999999999,1208.95" fill="none" stroke="var(--_line)" stroke-width="0.75" stroke-dasharray="4 4" />
<rect x="318.8574999999998" y="91" width="136.12" height="27" rx="4" ry="4" fill="var(--bg)" stroke="var(--_inner-stroke)" stroke-width="0.5" />
<text x="386.9174999999998" y="104.5" text-anchor="middle" dy="0.35em" font-size="11" font-weight="400" fill="var(--_text-muted)">commitOrder + ETH fee</text>
<rect x="35.999999999999886" y="617.35" width="113.24000000000001" height="27" rx="4" ry="4" fill="var(--bg)" stroke="var(--_inner-stroke)" stroke-width="0.5" />
<text x="92.61999999999989" y="630.85" text-anchor="middle" dy="0.35em" font-size="11" font-weight="400" fill="var(--_text-muted)">age &gt; maxOrderAge</text>
<rect x="409.34249999999986" y="184" width="193.32" height="27" rx="4" ry="4" fill="var(--bg)" stroke="var(--_inner-stroke)" stroke-width="0.5" />
<text x="506.0024999999998" y="197.5" text-anchor="middle" dy="0.35em" font-size="11" font-weight="400" fill="var(--_text-muted)">Keeper: executeOrder + Pyth VAA</text>
<rect x="265.58999999999986" y="389.95" width="130.4" height="27" rx="4" ry="4" fill="var(--bg)" stroke="var(--_inner-stroke)" stroke-width="0.5" />
<text x="330.78999999999985" y="403.45" text-anchor="middle" dy="0.35em" font-size="11" font-weight="400" fill="var(--_text-muted)">FX closed or holiday</text>
<rect x="604.5749999999998" y="389.95" width="153.28" height="27" rx="4" ry="4" fill="var(--bg)" stroke="var(--_inner-stroke)" stroke-width="0.5" />
<text x="681.2149999999998" y="403.45" text-anchor="middle" dy="0.35em" font-size="11" font-weight="400" fill="var(--_text-muted)">publishTime ≤ commitTime</text>
<rect x="114.33999999999978" y="389.95" width="101.8" height="27" rx="4" ry="4" fill="var(--bg)" stroke="var(--_inner-stroke)" stroke-width="0.5" />
<text x="165.23999999999978" y="403.45" text-anchor="middle" dy="0.35em" font-size="11" font-weight="400" fill="var(--_text-muted)">staleness &gt; 60s</text>
<rect x="1071.485" y="389.95" width="44.6" height="27" rx="4" ry="4" fill="var(--bg)" stroke="var(--_inner-stroke)" stroke-width="0.5" />
<text x="1093.7849999999999" y="403.45" text-anchor="middle" dy="0.35em" font-size="11" font-weight="400" fill="var(--_text-muted)">Fresh</text>
<rect x="923.2599999999998" y="617.35" width="33.16" height="27" rx="4" ry="4" fill="var(--bg)" stroke="var(--_inner-stroke)" stroke-width="0.5" />
<text x="939.8399999999998" y="630.85" text-anchor="middle" dy="0.35em" font-size="11" font-weight="400" fill="var(--_text-muted)">Yes</text>
<rect x="1153.3899999999999" y="617.35" width="27.44" height="27" rx="4" ry="4" fill="var(--bg)" stroke="var(--_inner-stroke)" stroke-width="0.5" />
<text x="1167.11" y="630.85" text-anchor="middle" dy="0.35em" font-size="11" font-weight="400" fill="var(--_text-muted)">No</text>
<rect x="1015.5849999999997" y="816.1500000000001" width="61.760000000000005" height="27" rx="4" ry="4" fill="var(--bg)" stroke="var(--_inner-stroke)" stroke-width="0.5" />
<text x="1046.4649999999997" y="829.6500000000001" text-anchor="middle" dy="0.35em" font-size="11" font-weight="400" fill="var(--_text-muted)">Exceeded</text>
<rect x="1203.1199999999997" y="816.1500000000001" width="27.44" height="27" rx="4" ry="4" fill="var(--bg)" stroke="var(--_inner-stroke)" stroke-width="0.5" />
<text x="1216.8399999999997" y="829.6500000000001" text-anchor="middle" dy="0.35em" font-size="11" font-weight="400" fill="var(--_text-muted)">OK</text>
<rect x="1129.7174999999997" y="1014.95" width="50.32" height="27" rx="4" ry="4" fill="var(--bg)" stroke="var(--_inner-stroke)" stroke-width="0.5" />
<text x="1154.8774999999998" y="1028.45" text-anchor="middle" dy="0.35em" font-size="11" font-weight="400" fill="var(--_text-muted)">Revert</text>
<rect x="1250.7824999999998" y="1014.95" width="56.04" height="27" rx="4" ry="4" fill="var(--bg)" stroke="var(--_inner-stroke)" stroke-width="0.5" />
<text x="1278.8024999999998" y="1028.45" text-anchor="middle" dy="0.35em" font-size="11" font-weight="400" fill="var(--_text-muted)">Success</text>
<rect x="349.4674999999998" y="40" width="74.9" height="36" rx="18" ry="18" fill="#dbeafe" stroke="#2563eb" stroke-width="2px" />
<rect x="349.4674999999998" y="133" width="74.9" height="36" rx="18" ry="18" fill="#e0f2fe" stroke="#0284c7" stroke-width="1.5px" />
<rect x="51.594999999999885" y="1056.95" width="82.05000000000001" height="36" rx="18" ry="18" fill="#fef3c7" stroke="#d97706" stroke-width="1.5px" />
<polygon points="506.0024999999998,226.00000000000003 580.4774999999998,300.475 506.0024999999998,374.95000000000005 431.5274999999998,300.475" fill="#f1f5f9" stroke="#475569" stroke-width="2px" />
<rect x="268.3149999999998" y="499.15" width="124.95" height="36" rx="18" ry="18" fill="#fee2e2" stroke="#dc2626" stroke-width="2px" />
<rect x="629.4649999999998" y="499.15" width="103.5" height="36" rx="18" ry="18" fill="#fee2e2" stroke="#dc2626" stroke-width="2px" />
<rect x="131.36499999999978" y="499.15" width="67.75" height="36" rx="18" ry="18" fill="#fef3c7" stroke="#d97706" stroke-width="1.5px" />
<polygon points="1093.7849999999999,431.95 1178.985,517.15 1093.7849999999999,602.35 1008.5849999999998,517.15" fill="#f1f5f9" stroke="#475569" stroke-width="2px" />
<rect x="888.0899999999998" y="712.25" width="103.5" height="36" rx="18" ry="18" fill="#fef3c7" stroke="#d97706" stroke-width="1.5px" />
<polygon points="1167.11,659.35 1238.01,730.25 1167.11,801.15 1096.2099999999998,730.25" fill="#f1f5f9" stroke="#475569" stroke-width="2px" />
<rect x="1001.8649999999997" y="911.0500000000001" width="89.2" height="36" rx="18" ry="18" fill="#fef3c7" stroke="#d97706" stroke-width="1.5px" />
<polygon points="1216.8399999999997,858.1500000000001 1287.7399999999998,929.0500000000001 1216.8399999999997,999.95 1145.9399999999996,929.0500000000001" fill="#f1f5f9" stroke="#475569" stroke-width="2px" />
<rect x="1099.5524999999998" y="1056.95" width="110.65" height="36" rx="18" ry="18" fill="#fef3c7" stroke="#d97706" stroke-width="1.5px" />
<rect x="1234.2024999999999" y="1056.95" width="89.2" height="36" rx="18" ry="18" fill="#dcfce7" stroke="#16a34a" stroke-width="2px" />
<rect x="869.9099999999999" y="1132.95" width="246.50000000000003" height="36" rx="0" ry="0" fill="#fafafa" stroke="#d4d4d4" stroke-width="0.75px" />
<polygon points="199.23999999999984,712.25 474.33999999999986,712.25 474.33999999999986,748.25 199.23999999999984,748.25 187.23999999999984,730.25" fill="#fafafa" stroke="#d4d4d4" stroke-width="0.75px" />
<polygon points="510.3399999999998,712.25 864.0899999999998,712.25 864.0899999999998,748.25 510.3399999999998,748.25 498.3399999999998,730.25" fill="#fafafa" stroke="#d4d4d4" stroke-width="0.75px" />
<polygon points="807.9849999999999,1208.95 1190.335,1208.95 1190.335,1244.95 807.9849999999999,1244.95 795.9849999999999,1226.95" fill="#fafafa" stroke="#d4d4d4" stroke-width="0.75px" />
<text x="386.9174999999998" y="58" text-anchor="middle" dy="0.35em" font-size="13" font-weight="500" fill="#1e40af">Trader</text>
<text x="386.9174999999998" y="151" text-anchor="middle" dy="0.35em" font-size="13" font-weight="500" fill="#0c4a6e">Queued</text>
<text x="92.61999999999989" y="1074.95" text-anchor="middle" dy="0.35em" font-size="13" font-weight="500" fill="#92400e">Expired</text>
<text x="506.0024999999998" y="300.475" text-anchor="middle" dy="0.35em" font-size="13" font-weight="500" fill="#1e293b">Oracle Fresh?</text>
<text x="330.78999999999985" y="517.15" text-anchor="middle" dy="0.35em" font-size="13" font-weight="500" fill="#991b1b">Frozen Revert</text>
<text x="681.2149999999998" y="517.15" text-anchor="middle" dy="0.35em" font-size="13" font-weight="500" fill="#991b1b">MEV Revert</text>
<text x="165.23999999999978" y="517.15" text-anchor="middle" dy="0.35em" font-size="13" font-weight="500" fill="#92400e">Stale</text>
<text x="1093.7849999999999" y="517.15" text-anchor="middle" dy="0.35em" font-size="13" font-weight="500" fill="#1e293b">Open During FAD?</text>
<text x="939.8399999999998" y="730.25" text-anchor="middle" dy="0.35em" font-size="13" font-weight="500" fill="#92400e">Close-Only</text>
<text x="1167.11" y="730.25" text-anchor="middle" dy="0.35em" font-size="13" font-weight="500" fill="#1e293b">Slippage OK?</text>
<text x="1046.4649999999997" y="929.0500000000001" text-anchor="middle" dy="0.35em" font-size="13" font-weight="500" fill="#92400e">Slippage</text>
<text x="1216.8399999999997" y="929.0500000000001" text-anchor="middle" dy="0.35em" font-size="13" font-weight="500" fill="#1e293b">processOrder</text>
<text x="1154.8774999999998" y="1074.95" text-anchor="middle" dy="0.35em" font-size="13" font-weight="500" fill="#92400e">Engine Fail</text>
<text x="1278.8024999999998" y="1074.95" text-anchor="middle" dy="0.35em" font-size="13" font-weight="500" fill="#166534">Executed</text>
<text x="993.1599999999999" y="1150.95" text-anchor="middle" dy="0.35em" font-size="13" font-weight="500" fill="#737373">Queue Advances · Order Deleted</text>
<text x="330.78999999999985" y="730.25" text-anchor="middle" dy="0.35em" font-size="13" font-weight="500" fill="#737373">Hard revert · waits for FX markets</text>
<text x="681.2149999999998" y="730.25" text-anchor="middle" dy="0.35em" font-size="13" font-weight="500" fill="#737373">Hard revert · keeper retries with fresh price</text>
<text x="993.1599999999999" y="1226.95" text-anchor="middle" dy="0.35em" font-size="13" font-weight="500" fill="#737373">Un-brickable: all soft outcomes advance the queue</text>
</svg>