<svg xmlns="http://www.w3.org/2000/svg" viewBox="0 0 494.985 395" width="494.985" height="395" style="--bg:#ffffff;--fg:#1f2328;--line:#9ca3af;--accent:#6b7280;--muted:#59636e;background:var(--bg)">
<style>
  @import url('https://fonts.googleapis.com/css2?family=Inter:wght@400;500;600;700&amp;display=swap');
  text { font-family: 'Inter', system-ui, sans-serif; }
  svg {
    /* Derived from --bg and --fg (overridable via --line, --accent, etc.) */
    --_text:          var(--fg);
    --_text-sec:      var(--muted, color-mix(in srgb, var(--fg) 60%, var(--bg)));
    --_text-muted:    var(--muted, color-mix(in srgb, var(--fg) 40%, var(--bg)));
    --_text-faint:    color-mix(in srgb, var(--fg) 25%, var(--bg));
    --_line:          var(--line, color-mix(in srgb, var(--fg) 30%, var(--bg)));
    --_arrow:         var(--accent, color-mix(in srgb, var(--fg) 50%, var(--bg)));
    --_node-fill:     var(--surface, color-mix(in srgb, var(--fg) 3%, var(--bg)));
    --_node-stroke:   var(--border, color-mix(in srgb, var(--fg) 20%, var(--bg)));
    --_group-fill:    var(--bg);
    --_group-hdr:     color-mix(in srgb, var(--fg) 5%, var(--bg));
    --_inner-stroke:  color-mix(in srgb, var(--fg) 12%, var(--bg));
    --_key-badge:     color-mix(in srgb, var(--fg) 10%, var(--bg));
  }
</style>
<defs>
  <marker id="arrowhead" markerWidth="8" markerHeight="4.8" refX="8" refY="2.4" orient="auto">
    <polygon points="0 0, 8 2.4, 0 4.8" fill="var(--_arrow)" />
  </marker>
  <marker id="arrowhead-start" markerWidth="8" markerHeight="4.8" refX="0" refY="2.4" orient="auto-start-reverse">
    <polygon points="8 0, 0 2.4, 8 4.8" fill="var(--_arrow)" />
  </marker>
</defs>
<polyline points="247.4925,76 247.4925,133" fill="none" stroke="var(--_line)" stroke-width="0.75" marker-end="url(#arrowhead)" />
<polyline points="247.4925,169 247.4925,197.5 91.75,197.5 91.75,226" fill="none" stroke="var(--_line)" stroke-width="0.75" marker-end="url(#arrowhead)" />
<polyline points="247.4925,169 247.4925,226" fill="none" stroke="var(--_line)" stroke-width="0.75" marker-end="url(#arrowhead)" />
<polyline points="247.4925,169 247.4925,197.5 403.235,197.5 403.235,226" fill="none" stroke="var(--_line)" stroke-width="0.75" marker-end="url(#arrowhead)" />
<polyline points="91.75,262 91.75,337 81.885,337" fill="none" stroke="var(--_line)" stroke-width="0.75" marker-end="url(#arrowhead)" />
<polyline points="403.235,262 403.235,337 413.09999999999997,337" fill="none" stroke="var(--_line)" stroke-width="0.75" marker-end="url(#arrowhead)" />
<polyline points="247.4925,262 247.4925,290.5 213.47250000000003,290.5 213.47250000000003,337 192.53500000000003,337" fill="none" stroke="var(--_line)" stroke-width="0.75" marker-end="url(#arrowhead)" />
<polyline points="247.4925,262 247.4925,290.5 281.5125,290.5 281.5125,337 302.45,337" fill="none" stroke="var(--_line)" stroke-width="0.75" marker-end="url(#arrowhead)" />
<rect x="205.1725" y="91" width="84.64" height="27" rx="4" ry="4" fill="var(--bg)" stroke="var(--_inner-stroke)" stroke-width="0.5" />
<text x="247.4925" y="104.5" text-anchor="middle" dy="0.35em" font-size="11" font-weight="400" fill="var(--_text-muted)">Deposit USDC</text>
<rect x="210.8925" y="184" width="73.2" height="27" rx="4" ry="4" fill="var(--bg)" stroke="var(--_inner-stroke)" stroke-width="0.5" />
<text x="247.4925" y="197.5" text-anchor="middle" dy="0.35em" font-size="11" font-weight="400" fill="var(--_text-muted)">USDC Yield</text>
<rect x="40.85" y="277" width="101.8" height="27" rx="4" ry="4" fill="var(--bg)" stroke="var(--_inner-stroke)" stroke-width="0.5" />
<text x="91.75" y="290.5" text-anchor="middle" dy="0.35em" font-size="11" font-weight="400" fill="var(--_text-muted)">Stake ⇄ Unstake</text>
<rect x="352.33500000000004" y="277" width="101.8" height="27" rx="4" ry="4" fill="var(--bg)" stroke="var(--_inner-stroke)" stroke-width="0.5" />
<text x="403.235" y="290.5" text-anchor="middle" dy="0.35em" font-size="11" font-weight="400" fill="var(--_text-muted)">Stake ⇄ Unstake</text>
<rect x="185.45250000000001" y="277" width="56.04" height="27" rx="4" ry="4" fill="var(--bg)" stroke="var(--_inner-stroke)" stroke-width="0.5" />
<text x="213.47250000000003" y="290.5" text-anchor="middle" dy="0.35em" font-size="11" font-weight="400" fill="var(--_text-muted)">Rewards</text>
<rect x="253.49249999999998" y="277" width="56.04" height="27" rx="4" ry="4" fill="var(--bg)" stroke="var(--_inner-stroke)" stroke-width="0.5" />
<text x="281.5125" y="290.5" text-anchor="middle" dy="0.35em" font-size="11" font-weight="400" fill="var(--_text-muted)">Rewards</text>
<rect x="206.4675" y="40" width="82.05000000000001" height="36" rx="18" ry="18" fill="#dbeafe" stroke="#2563eb" stroke-width="2px" />
<rect x="170.7175" y="133" width="153.55" height="36" rx="0" ry="0" fill="#f1f5f9" stroke="#475569" stroke-width="2px" />
<rect x="40" y="226" width="103.5" height="36" rx="6" ry="6" fill="#dcfce7" stroke="#16a34a" stroke-width="1.5px" />
<rect x="170.7175" y="226" width="153.55" height="36" rx="0" ry="0" fill="#f1f5f9" stroke="#475569" stroke-width="2px" />
<rect x="351.485" y="226" width="103.5" height="36" rx="6" ry="6" fill="#dcfce7" stroke="#16a34a" stroke-width="1.5px" />
<rect x="81.885" y="319" width="110.65" height="36" rx="6" ry="6" fill="#dcfce7" stroke="#16a34a" stroke-width="1.5px" />
<rect x="302.45" y="319" width="110.65" height="36" rx="6" ry="6" fill="#dcfce7" stroke="#16a34a" stroke-width="1.5px" />
<text x="247.4925" y="58" text-anchor="middle" dy="0.35em" font-size="13" font-weight="500" fill="#1e40af">💳 User</text>
<text x="247.4925" y="151" text-anchor="middle" dy="0.35em" font-size="13" font-weight="500" fill="#1e293b">SyntheticSplitter</text>
<text x="91.75" y="244" text-anchor="middle" dy="0.35em" font-size="13" font-weight="500" fill="#166534">plDXY-BEAR</text>
<text x="247.4925" y="244" text-anchor="middle" dy="0.35em" font-size="13" font-weight="500" fill="#1e293b">RewardDistributor</text>
<text x="403.235" y="244" text-anchor="middle" dy="0.35em" font-size="13" font-weight="500" fill="#166534">plDXY-BULL</text>
<text x="137.21" y="337" text-anchor="middle" dy="0.35em" font-size="13" font-weight="500" fill="#166534">splDXY-BEAR</text>
<text x="357.775" y="337" text-anchor="middle" dy="0.35em" font-size="13" font-weight="500" fill="#166534">splDXY-BULL</text>
</svg>