<svg xmlns="http://www.w3.org/2000/svg" viewBox="0 0 491.75750000000005 395" width="491.75750000000005" height="395" style="--bg:#ffffff;--fg:#1f2328;--line:#9ca3af;--accent:#6b7280;--muted:#59636e;background:var(--bg)">
<style>
  @import url('https://fonts.googleapis.com/css2?family=Inter:wght@400;500;600;700&amp;display=swap');
  text { font-family: 'Inter', system-ui, sans-serif; }
  svg {
    /* Derived from --bg and --fg (overridable via --line, --accent, etc.) */
    --_text:          var(--fg);
    --_text-sec:      var(--muted, color-mix(in srgb, var(--fg) 60%, var(--bg)));
    --_text-muted:    var(--muted, color-mix(in srgb, var(--fg) 40%, var(--bg)));
    --_text-faint:    color-mix(in srgb, var(--fg) 25%, var(--bg));
    --_line:          var(--line, color-mix(in srgb, var(--fg) 30%, var(--bg)));
    --_arrow:         var(--accent, color-mix(in srgb, var(--fg) 50%, var(--bg)));
    --_node-fill:     var(--surface, color-mix(in srgb, var(--fg) 3%, var(--bg)));
    --_node-stroke:   var(--border, color-mix(in srgb, var(--fg) 20%, var(--bg)));
    --_group-fill:    var(--bg);
    --_group-hdr:     color-mix(in srgb, var(--fg) 5%, var(--bg));
    --_inner-stroke:  color-mix(in srgb, var(--fg) 12%, var(--bg));
    --_key-badge:     color-mix(in srgb, var(--fg) 10%, var(--bg));
  }
</style>
<defs>
  <marker id="arrowhead" markerWidth="8" markerHeight="4.8" refX="8" refY="2.4" orient="auto">
    <polygon points="0 0, 8 2.4, 0 4.8" fill="var(--_arrow)" />
  </marker>
  <marker id="arrowhead-start" markerWidth="8" markerHeight="4.8" refX="0" refY="2.4" orient="auto-start-reverse">
    <polygon points="8 0, 0 2.4, 8 4.8" fill="var(--_arrow)" />
  </marker>
</defs>
<polyline points="112.54249999999996,76 112.54249999999996,151 142.475,151" fill="none" stroke="var(--_line)" stroke-width="0.75" marker-end="url(#arrowhead)" />
<polyline points="237.78249999999997,76 237.78249999999997,151 296.025,151" fill="none" stroke="var(--_line)" stroke-width="0.75" marker-end="url(#arrowhead)" />
<polyline points="384.8575,76 384.8575,151 296.025,151" fill="none" stroke="var(--_line)" stroke-width="0.75" marker-end="url(#arrowhead)" />
<polyline points="219.25,169 219.25,197.5 91.75,197.5 91.75,226" fill="none" stroke="var(--_line)" stroke-width="0.75" marker-end="url(#arrowhead)" />
<polyline points="219.25,169 219.25,226" fill="none" stroke="var(--_line)" stroke-width="0.75" marker-end="url(#arrowhead)" />
<polyline points="91.75,262 91.75,337 45.50749999999998,337" fill="none" stroke="var(--_line)" stroke-width="0.75" marker-end="url(#arrowhead)" />
<polyline points="219.25,262 219.25,337 243.65749999999997,337" fill="none" stroke="var(--_line)" stroke-width="0.75" marker-end="url(#arrowhead)" />
<polyline points="219.25,169 219.25,197.5 381.5625,197.5 381.5625,226" fill="none" stroke="var(--_line)" stroke-width="0.75" marker-end="url(#arrowhead)" />
<polyline points="381.5625,262 381.5625,319" fill="none" stroke="var(--_line)" stroke-width="0.75" marker-end="url(#arrowhead)" />
<rect x="44.48249999999996" y="91" width="136.12" height="27" rx="4" ry="4" fill="var(--bg)" stroke="var(--_inner-stroke)" stroke-width="0.5" />
<text x="112.54249999999996" y="104.5" text-anchor="middle" dy="0.35em" font-size="11" font-weight="400" fill="var(--_text-muted)">Deposit ⇄ Redeem USDC</text>
<rect x="192.60249999999996" y="91" width="90.36" height="27" rx="4" ry="4" fill="var(--bg)" stroke="var(--_inner-stroke)" stroke-width="0.5" />
<text x="237.78249999999997" y="104.5" text-anchor="middle" dy="0.35em" font-size="11" font-weight="400" fill="var(--_text-muted)">5 Price Feeds</text>
<rect x="342.5375" y="91" width="84.64" height="27" rx="4" ry="4" fill="var(--bg)" stroke="var(--_inner-stroke)" stroke-width="0.5" />
<text x="384.8575" y="104.5" text-anchor="middle" dy="0.35em" font-size="11" font-weight="400" fill="var(--_text-muted)">SEK/USD Feed</text>
<rect x="69.45" y="277" width="44.6" height="27" rx="4" ry="4" fill="var(--bg)" stroke="var(--_inner-stroke)" stroke-width="0.5" />
<text x="91.75" y="290.5" text-anchor="middle" dy="0.35em" font-size="11" font-weight="400" fill="var(--_text-muted)">Trade</text>
<rect x="156.91" y="277" width="124.68" height="27" rx="4" ry="4" fill="var(--bg)" stroke="var(--_inner-stroke)" stroke-width="0.5" />
<text x="219.25" y="290.5" text-anchor="middle" dy="0.35em" font-size="11" font-weight="400" fill="var(--_text-muted)">Trade via ZapRouter</text>
<rect x="324.9425" y="184" width="113.24000000000001" height="27" rx="4" ry="4" fill="var(--bg)" stroke="var(--_inner-stroke)" stroke-width="0.5" />
<text x="381.5625" y="197.5" text-anchor="middle" dy="0.35em" font-size="11" font-weight="400" fill="var(--_text-muted)">90% USDC Reserves</text>
<rect x="359.2625" y="277" width="44.6" height="27" rx="4" ry="4" fill="var(--bg)" stroke="var(--_inner-stroke)" stroke-width="0.5" />
<text x="381.5625" y="290.5" text-anchor="middle" dy="0.35em" font-size="11" font-weight="400" fill="var(--_text-muted)">Yield</text>
<rect x="78.66749999999996" y="40" width="67.75" height="36" rx="18" ry="18" fill="#dbeafe" stroke="#2563eb" stroke-width="2px" />
<rect x="142.475" y="133" width="153.55" height="36" rx="0" ry="0" fill="#f1f5f9" stroke="#475569" stroke-width="2px" />
<polygon points="190.60749999999996,40 284.9575,40 293.9575,58 284.9575,76 190.60749999999996,76 181.60749999999996,58" fill="#fef9c3" stroke="#ca8a04" stroke-width="1.5px" />
<polygon points="326.9575,40 442.7575,40 451.7575,58 442.7575,76 326.9575,76 317.9575,58" fill="#fef9c3" stroke="#ca8a04" stroke-width="1.5px" />
<rect x="40" y="226" width="103.5" height="36" rx="6" ry="6" fill="#dcfce7" stroke="#16a34a" stroke-width="1.5px" />
<rect x="167.5" y="226" width="103.5" height="36" rx="6" ry="6" fill="#dcfce7" stroke="#16a34a" stroke-width="1.5px" />
<polygon points="54.50749999999998,319 234.65749999999997,319 243.65749999999997,337 234.65749999999997,355 54.50749999999998,355 45.50749999999998,337" fill="#fef9c3" stroke="#ca8a04" stroke-width="1.5px" />
<rect x="319.0875" y="226" width="124.95" height="36" rx="0" ry="0" fill="#f1f5f9" stroke="#475569" stroke-width="2px" />
<polygon points="327.2375,319 435.88750000000005,319 444.88750000000005,337 435.88750000000005,355 327.2375,355 318.2375,337" fill="#fef9c3" stroke="#ca8a04" stroke-width="1.5px" />
<text x="112.54249999999996" y="58" text-anchor="middle" dy="0.35em" font-size="13" font-weight="500" fill="#1e40af">Users</text>
<text x="219.25" y="151" text-anchor="middle" dy="0.35em" font-size="13" font-weight="500" fill="#1e293b">SyntheticSplitter</text>
<text x="237.78249999999997" y="58" text-anchor="middle" dy="0.35em" font-size="13" font-weight="500" fill="#713f12">Chainlink</text>
<text x="384.85749999999996" y="58" text-anchor="middle" dy="0.35em" font-size="13" font-weight="500" fill="#713f12">Pyth Network</text>
<text x="91.75" y="244" text-anchor="middle" dy="0.35em" font-size="13" font-weight="500" fill="#166534">plDXY-BEAR</text>
<text x="219.25" y="244" text-anchor="middle" dy="0.35em" font-size="13" font-weight="500" fill="#166534">plDXY-BULL</text>
<text x="144.58249999999998" y="337" text-anchor="middle" dy="0.35em" font-size="13" font-weight="500" fill="#713f12">Curve AMM · USDC/BEAR</text>
<text x="381.5625" y="244" text-anchor="middle" dy="0.35em" font-size="13" font-weight="500" fill="#1e293b">MorphoAdapter</text>
<text x="381.5625" y="337" text-anchor="middle" dy="0.35em" font-size="13" font-weight="500" fill="#713f12">Morpho Blue</text>
</svg>